<?xml version="1.0" standalone="no"?>
<!DOCTYPE svg PUBLIC "-//W3C//DTD SVG 20010904//EN"
 "http://www.w3.org/TR/2001/REC-SVG-20010904/DTD/svg10.dtd">
<svg version="1.0" xmlns="http://www.w3.org/2000/svg"
 width="1024.000000pt" height="1024.000000pt" viewBox="0 0 1024.000000 1024.000000"
 preserveAspectRatio="xMidYMid meet">

<g transform="translate(0.000000,1024.000000) scale(0.100000,-0.100000)"
fill="#000000" stroke="none">
<path d="M5759 7557 c-92 -26 -190 -95 -420 -293 -313 -270 -318 -274 -376
-296 -57 -21 -136 -89 -148 -128 -3 -10 -64 -62 -135 -115 -70 -53 -134 -102
-140 -110 -7 -8 -26 -15 -42 -15 -40 0 -121 -43 -166 -88 -47 -47 -91 -79
-167 -122 -33 -19 -79 -48 -102 -66 -23 -17 -61 -34 -84 -38 -56 -9 -108 -37
-155 -84 -22 -22 -92 -67 -159 -102 -66 -35 -132 -71 -147 -81 -14 -11 -39
-19 -55 -19 -48 0 -98 -19 -162 -60 -56 -36 -226 -115 -291 -135 -14 -4 -46
-18 -72 -31 -75 -38 -293 -109 -420 -138 -278 -62 -549 -87 -937 -85 -231 2
-263 0 -322 -18 -121 -38 -187 -84 -259 -182 -32 -46 -50 -61 -68 -61 -83 0
-142 -183 -142 -440 0 -175 39 -284 165 -465 258 -371 661 -660 1252 -896 175
-70 245 -91 458 -139 105 -24 194 -46 198 -50 13 -11 -478 -20 -1149 -20 -598
0 -632 -1 -647 -18 -24 -26 -21 -65 7 -91 l24 -23 3649 1 c2006 0 3842 0 4080
0 l431 1 31 26 c37 31 40 66 9 88 -19 14 -78 16 -434 16 -413 0 -898 10 -890
17 2 3 68 18 146 33 183 37 444 125 595 201 396 199 693 499 784 792 44 143
47 366 6 463 -26 62 -178 265 -269 358 l-88 91 2 92 c2 135 -8 160 -98 251
-42 43 -94 86 -114 95 -32 15 -38 23 -38 50 0 53 -45 222 -111 412 -57 168
-61 184 -56 245 8 92 50 218 98 289 23 34 75 92 117 129 162 142 208 193 232
257 54 147 9 283 -112 335 -130 56 -265 3 -380 -149 l-25 -33 -29 20 c-92 67
-347 53 -519 -27 -155 -72 -260 -199 -350 -421 -84 -206 -127 -257 -274 -320
-129 -56 -239 -74 -416 -67 -216 9 -414 65 -675 190 -93 44 -91 42 -73 85 41
97 53 269 28 397 -35 183 -199 403 -355 476 -55 26 -176 34 -241 16z m189
-117 c96 -44 217 -196 262 -329 23 -69 23 -106 0 -106 -8 0 -16 -9 -17 -20 -3
-18 -2 -18 5 -2 11 26 23 26 34 -2 11 -30 -7 -55 -22 -31 -8 13 -10 12 -10 -2
0 -12 8 -18 23 -19 12 0 17 -3 10 -5 -7 -3 -9 -12 -6 -20 4 -10 0 -12 -13 -7
-12 4 -15 3 -10 -5 4 -7 1 -12 -6 -13 -10 0 -10 -2 0 -6 17 -7 15 -40 -2 -46
-8 -3 -17 -3 -19 1 -2 4 -2 1 -1 -5 5 -19 -13 -16 -20 3 -3 8 -10 12 -16 9 -5
-3 -10 -4 -10 -1 0 2 -3 12 -7 22 -4 11 -3 15 5 10 6 -3 14 -1 18 5 4 8 3 9
-5 5 -19 -12 -5 44 16 60 11 9 13 13 4 12 -7 -2 -16 3 -19 11 -3 9 0 11 8 6 9
-6 9 -3 0 14 -6 12 -15 19 -20 16 -5 -3 -13 3 -19 12 -6 10 -11 13 -11 6 0 -6
5 -15 10 -18 12 -8 13 -25 2 -25 -5 0 -14 10 -21 23 -11 22 -11 22 -5 -3 4
-13 13 -30 20 -38 12 -11 14 -11 14 5 1 16 2 16 10 2 10 -17 -11 -94 -23 -83
-3 4 -2 15 4 26 6 11 8 22 5 26 -3 3 -6 -1 -6 -8 0 -9 -7 -7 -22 6 -13 10 -17
12 -11 4 9 -12 8 -21 -2 -40 -9 -15 -15 -19 -15 -10 0 12 -3 11 -11 -3 -6 -9
-15 -14 -21 -11 -7 4 -8 2 -4 -5 6 -9 11 -9 22 0 21 17 18 -6 -3 -27 -16 -16
-16 -17 -1 -12 12 5 19 -1 27 -23 11 -32 16 -35 27 -17 5 7 3 8 -6 3 -10 -6
-12 -4 -7 9 4 10 7 22 7 27 0 6 5 7 10 4 6 -4 8 -12 4 -18 -3 -7 2 -3 10 7 12
15 16 16 16 5 0 -11 2 -11 9 -1 7 11 9 11 14 -2 4 -9 2 -16 -2 -16 -5 0 -12
-8 -15 -17 -6 -16 -6 -16 12 0 13 12 21 14 29 6 8 -8 11 -6 10 7 -2 13 5 20
23 21 23 2 23 2 5 -6 -11 -5 -14 -10 -7 -10 6 -1 12 -8 12 -16 0 -8 -6 -15
-12 -16 -10 0 -10 -2 -1 -6 17 -6 -2 -43 -23 -43 -9 0 -12 5 -8 12 5 8 2 9
-11 5 -11 -5 -53 11 -122 48 -57 30 -111 55 -119 55 -9 0 -13 4 -10 8 2 4 -5
8 -17 7 -12 0 -61 4 -108 9 -97 9 -153 -2 -264 -55 l-62 -29 -114 51 c-134 59
-199 92 -199 100 0 3 18 20 39 37 37 29 46 32 112 32 92 0 179 22 300 74 116
52 181 95 220 148 49 68 34 161 -31 190 -37 16 -38 24 -2 36 44 17 114 13 160
-8z m-224 -101 c25 -20 33 -53 18 -75 -17 -25 -85 -64 -182 -106 -97 -42 -215
-76 -226 -65 -7 7 232 209 284 239 56 33 71 34 106 7z m3307 -97 c24 -22 31
-36 31 -65 0 -80 -38 -137 -155 -235 -125 -105 -180 -164 -216 -231 -18 -35
-35 -60 -38 -58 -2 3 0 45 6 94 31 258 118 435 243 497 66 33 90 33 129 -2z
m-511 -91 l25 -7 -22 -12 c-12 -7 -62 -26 -110 -43 -167 -59 -230 -96 -326
-191 -82 -83 -91 -96 -158 -236 -109 -229 -130 -268 -184 -339 -86 -115 -229
-194 -350 -193 -38 1 -35 3 72 55 148 72 192 116 271 272 33 65 80 168 106
230 67 166 99 224 158 288 96 106 200 156 357 175 84 9 130 10 161 1z m13
-170 c11 -1 8 -31 -3 -31 -5 0 -10 8 -10 17 0 9 -3 13 -7 10 -3 -4 0 -19 8
-34 12 -22 12 -27 0 -31 -10 -3 -10 -6 -1 -12 8 -5 7 -11 -4 -23 -9 -8 -16
-23 -16 -32 0 -9 -5 -13 -10 -10 -6 4 -8 16 -5 28 5 16 4 18 -3 8 -7 -10 -11
-10 -17 -1 -4 7 -2 16 5 20 7 5 8 10 2 14 -5 3 -15 -8 -22 -24 -11 -28 -21
-35 -43 -31 -5 1 -6 -3 -2 -9 4 -6 12 -7 23 -1 12 7 19 3 29 -16 17 -34 16
-38 -4 -22 -17 13 -17 13 0 -7 9 -11 14 -24 10 -29 -5 -4 -3 -5 3 -2 6 4 19
-2 29 -13 11 -13 14 -20 6 -20 -7 0 -9 -4 -6 -10 3 -5 2 -10 -4 -10 -5 0 -13
-10 -16 -21 -6 -17 -9 -19 -16 -8 -6 10 -9 8 -9 -8 0 -24 14 -31 25 -13 3 6
14 9 23 9 13 -1 12 -3 -3 -7 l-20 -5 20 -8 c18 -7 18 -8 2 -8 -10 -1 -16 -5
-12 -10 9 -16 13 -71 3 -65 -5 3 -8 11 -7 17 1 7 1 19 0 27 -1 13 -2 13 -11 0
-7 -11 -10 -11 -10 -2 0 7 -5 10 -10 7 -8 -5 -8 -11 -1 -19 14 -16 -18 -18
-38 -2 -12 9 -13 7 -8 -7 5 -14 2 -20 -12 -24 -17 -4 -18 -9 -9 -29 6 -13 16
-20 22 -16 6 3 17 7 25 9 8 1 18 8 22 15 7 11 9 11 9 0 0 -9 8 -11 23 -8 12 3
16 3 9 0 -6 -3 -9 -10 -6 -16 5 -7 1 -7 -12 0 -12 7 -25 7 -36 1 -10 -5 -18
-7 -18 -3 0 3 -7 1 -15 -6 -8 -7 -12 -17 -8 -24 4 -6 -1 -5 -10 2 -9 8 -21 11
-27 7 -6 -4 -10 -3 -9 2 3 19 -2 34 -9 29 -5 -3 -8 -19 -7 -35 1 -17 -2 -28
-7 -25 -4 3 -8 1 -8 -5 0 -5 -6 -12 -12 -14 -7 -2 -2 -3 12 -1 33 4 59 -10 35
-19 -9 -4 -13 -3 -10 3 9 15 -8 12 -31 -5 -11 -8 -14 -15 -6 -15 15 0 16 -30
1 -30 -5 0 -8 -4 -5 -8 3 -5 -1 -9 -9 -9 -20 0 -19 7 3 24 9 8 11 11 4 8 -10
-5 -13 -1 -10 15 4 32 -47 41 -55 10 -3 -11 0 -23 5 -27 7 -3 8 -1 4 5 -4 7
-2 12 4 12 6 0 8 4 5 10 -4 6 1 7 11 3 13 -5 14 -8 5 -11 -11 -4 -11 -6 0 -13
11 -7 11 -9 1 -9 -7 0 -10 -5 -6 -12 4 -6 0 -16 -8 -22 -16 -13 -32 -46 -29
-61 2 -5 -1 -7 -5 -3 -10 11 -34 -11 -34 -31 1 -14 2 -14 11 2 12 21 29 22 29
2 0 -8 5 -15 11 -15 5 0 7 5 4 10 -3 6 0 10 7 11 10 0 10 2 1 6 -19 7 -16 37
5 61 13 14 22 18 33 11 10 -6 11 -9 1 -9 -7 0 -10 -4 -7 -10 3 -5 0 -7 -8 -4
-8 3 -17 -1 -20 -9 -7 -20 25 -58 52 -60 18 -1 19 -3 8 -12 -7 -5 -12 -16 -9
-23 3 -9 10 -6 23 9 10 12 16 26 12 32 -4 6 -1 7 6 3 7 -5 19 0 27 10 14 18
14 18 4 -3 -6 -13 -14 -23 -18 -23 -8 0 -42 -53 -42 -65 0 -3 4 -4 8 -1 4 2 8
-5 9 -17 0 -12 -1 -16 -4 -9 -3 6 -9 10 -14 6 -5 -3 -9 -2 -8 3 4 21 -2 33
-16 33 -8 0 -15 5 -15 11 0 5 5 7 10 4 6 -3 10 -1 10 4 0 6 -6 11 -12 11 -9 0
-8 4 2 11 12 8 12 10 1 7 -8 -2 -15 -12 -17 -22 -4 -31 -14 -31 -11 1 4 28 3
29 -19 19 -13 -6 -24 -18 -24 -26 0 -13 1 -13 10 0 5 8 10 12 10 8 0 -3 3 -15
6 -25 5 -15 4 -15 -5 -3 -9 13 -11 13 -11 0 0 -13 -1 -13 -10 0 -6 8 -8 29 -5
45 5 25 4 27 -5 12 -6 -9 -15 -15 -21 -12 -5 4 -9 1 -9 -4 0 -6 4 -11 9 -11
15 0 24 -41 12 -53 -7 -7 -12 -5 -17 6 -3 9 -11 14 -16 11 -6 -4 -14 0 -19 7
-7 12 -9 11 -9 -1 0 -13 -1 -13 -10 0 -6 10 -10 11 -10 3 0 -7 -7 -13 -16 -13
-8 0 -12 -5 -9 -10 5 -8 11 -7 21 1 11 9 14 8 14 -2 0 -11 2 -11 10 1 8 12 10
11 10 -7 0 -18 -5 -21 -25 -17 -17 3 -25 0 -25 -10 0 -8 -7 -16 -15 -20 -15
-5 -22 -36 -7 -36 19 1 42 29 37 46 -4 11 1 6 10 -10 13 -22 14 -31 4 -40 -9
-8 -10 -8 -5 1 5 9 2 11 -8 7 -9 -3 -15 -9 -14 -12 2 -20 -3 -31 -14 -28 -7 1
-10 1 -6 -1 7 -4 -27 -43 -37 -43 -3 0 -1 10 5 23 10 20 10 20 -3 5 -8 -10
-20 -18 -28 -19 -8 0 -5 -4 6 -9 18 -8 16 -10 -14 -14 -5 0 -12 -4 -16 -8 -10
-9 -36 2 -29 13 3 5 0 9 -5 9 -6 0 -11 -4 -11 -9 0 -15 -29 -6 -45 15 -11 14
-14 15 -9 3 3 -10 1 -20 -5 -23 -7 -5 -7 -15 -1 -32 13 -33 13 -54 -1 -54 -5
0 -7 6 -3 13 5 7 0 6 -11 -3 -17 -14 -18 -13 -12 3 4 9 2 17 -4 17 -7 0 -9
-11 -5 -27 l7 -28 -20 24 c-10 14 -17 30 -15 36 3 6 -3 19 -11 30 -16 20 -16
19 -6 -2 6 -12 8 -29 5 -37 -3 -9 -1 -16 5 -16 15 0 14 -18 -1 -23 -7 -2 -5
-3 5 -1 9 1 22 -7 28 -18 7 -13 7 -18 1 -14 -6 3 -12 3 -15 -1 -2 -5 -3 -3 -1
4 3 14 -29 10 -34 -5 -2 -6 -11 -8 -20 -5 -15 6 -14 3 2 -15 10 -12 22 -19 27
-17 4 3 11 1 14 -5 4 -6 16 -8 28 -4 15 4 10 -2 -13 -19 -32 -23 -36 -24 -47
-9 -15 19 -17 36 -3 27 6 -3 10 -13 10 -21 0 -12 3 -12 14 -2 11 10 10 14 -8
24 -15 7 -25 8 -35 0 -9 -7 -9 -12 -2 -14 6 -2 11 -13 10 -25 0 -12 -3 -16 -6
-9 -4 10 -9 8 -20 -7 -14 -21 -39 -20 -27 1 4 6 2 8 -4 4 -5 -3 -13 0 -15 6
-3 8 -6 6 -6 -4 -1 -12 -9 -18 -23 -19 -22 0 -22 -1 -3 -9 17 -7 17 -9 3 -9
-10 -1 -18 -5 -18 -11 0 -5 8 -7 18 -4 14 5 14 3 -3 -10 -18 -15 -20 -15 -27
1 -6 15 -7 15 -7 -4 -1 -12 -5 -24 -10 -27 -5 -4 -7 4 -3 16 5 19 4 20 -10 7
-9 -7 -14 -17 -12 -21 2 -4 -1 -10 -7 -14 -7 -4 -9 -3 -6 2 3 6 2 16 -4 24 -7
13 -9 12 -9 -2 0 -10 -6 -18 -12 -19 -10 0 -10 -2 0 -6 10 -4 9 -8 -5 -19 -24
-18 -38 -18 -23 1 11 13 10 14 -4 9 -9 -3 -16 -12 -16 -20 0 -8 -32 -30 -71
-50 -57 -28 -74 -33 -80 -22 -7 10 -9 9 -9 -4 0 -18 -57 -51 -65 -38 -9 14
-35 0 -36 -19 0 -9 -3 -11 -5 -5 -3 7 -18 -1 -36 -18 -24 -22 -33 -26 -39 -16
-6 10 -9 8 -9 -6 0 -14 -6 -17 -25 -14 -13 3 -22 1 -19 -3 3 -5 0 -9 -5 -9 -6
0 -11 4 -11 9 0 15 -32 23 -44 11 -8 -8 -6 -9 8 -4 15 6 17 4 11 -6 -6 -9 -4
-11 5 -5 8 5 11 3 9 -4 -3 -7 -19 -21 -37 -32 -27 -18 -32 -19 -32 -5 0 9 -7
16 -15 16 -8 0 -15 4 -15 10 0 5 8 7 18 4 10 -4 13 -3 6 3 -6 4 -14 15 -17 23
-4 12 -6 11 -6 -3 -1 -10 -6 -15 -11 -12 -6 4 -8 10 -6 14 3 4 -1 8 -9 8 -10
0 -12 -4 -5 -12 5 -7 6 -16 2 -20 -4 -5 -1 -4 7 0 11 6 13 4 8 -8 -3 -9 -3
-16 1 -16 63 10 35 -25 -58 -71 -49 -25 -90 -49 -90 -55 0 -5 -4 -5 -8 2 -5 8
-17 7 -45 -6 -20 -10 -34 -20 -30 -24 3 -4 1 -7 -6 -7 -7 0 -9 -5 -5 -12 6
-10 4 -10 -7 0 -18 16 -34 15 -20 -2 9 -11 5 -16 -21 -27 -18 -7 -67 -34 -108
-59 -41 -26 -97 -60 -125 -75 -27 -15 -70 -43 -95 -60 -25 -18 -63 -40 -85
-50 -78 -33 -387 -145 -398 -144 -20 0 199 108 276 136 276 99 497 302 538
493 23 110 -31 239 -145 348 -117 110 -394 264 -671 372 -60 24 -150 60 -200
80 -273 114 -459 155 -489 108 -16 -26 19 -56 79 -67 79 -15 379 -130 720
-276 166 -71 397 -209 481 -287 77 -73 104 -121 111 -198 5 -49 1 -66 -26
-123 -54 -113 -172 -203 -411 -312 -191 -88 -513 -271 -686 -391 -148 -102
-345 -182 -804 -324 -251 -77 -408 -112 -564 -126 -58 -5 -77 -4 -72 5 4 6 18
11 31 11 14 0 59 14 102 31 43 17 107 41 143 54 107 36 304 120 905 382 83 36
249 112 370 168 121 56 276 126 345 154 69 29 150 64 180 78 30 14 72 31 92
39 29 10 136 63 167 82 3 1 0 7 -6 13 -17 17 -103 -5 -197 -51 -44 -21 -160
-75 -256 -118 -96 -44 -254 -117 -350 -162 -96 -45 -211 -97 -255 -115 -119
-49 -288 -126 -301 -136 -6 -5 -39 -20 -75 -33 -35 -14 -116 -48 -179 -77
-159 -71 -539 -226 -630 -256 -41 -13 -97 -35 -125 -48 -54 -25 -134 -40 -260
-50 l-80 -6 110 39 c61 21 162 61 225 89 150 67 199 86 353 139 132 46 321
126 467 199 47 23 144 67 215 98 288 122 441 189 665 292 129 59 285 128 345
155 122 52 312 151 347 181 40 32 -5 23 -100 -22 -47 -22 -136 -61 -196 -86
-61 -25 -158 -68 -216 -95 -58 -28 -123 -58 -145 -68 -22 -9 -120 -54 -217
-99 -98 -45 -235 -104 -304 -132 -70 -28 -214 -93 -319 -144 -106 -52 -230
-110 -276 -128 -46 -19 -122 -51 -168 -71 -46 -20 -145 -57 -219 -82 -74 -26
-173 -64 -220 -86 -47 -22 -113 -50 -147 -62 -33 -13 -87 -37 -120 -53 -33
-17 -82 -36 -110 -43 -59 -14 -265 -28 -265 -18 0 5 5 8 10 8 19 0 332 118
515 193 191 79 225 93 595 244 129 53 276 116 325 141 82 41 232 107 625 277
80 34 186 82 235 105 98 46 346 159 490 222 106 47 225 115 225 128 0 14 -22
12 -45 -4 -11 -7 -67 -31 -125 -54 -58 -22 -157 -65 -220 -95 -149 -71 -587
-267 -596 -267 -4 0 -51 -20 -103 -44 -462 -213 -620 -284 -641 -291 -14 -4
-92 -38 -175 -75 -82 -37 -217 -93 -299 -124 -82 -32 -158 -64 -170 -71 -20
-13 -450 -185 -463 -185 -3 0 -45 -18 -94 -40 -108 -49 -129 -50 -164 -9 l-26
32 83 27 c46 15 148 52 228 82 80 31 201 77 270 103 69 26 184 72 255 102 72
31 173 73 226 94 53 21 123 51 155 67 33 16 109 50 169 75 61 25 198 87 305
137 107 51 287 131 400 180 272 117 408 178 507 229 46 22 118 55 160 72 114
45 263 119 263 130 0 5 -4 9 -8 9 -26 0 -130 -39 -245 -92 -73 -33 -260 -115
-417 -183 -157 -67 -355 -155 -440 -195 -85 -40 -256 -117 -379 -172 -123 -54
-287 -130 -365 -167 -78 -38 -213 -96 -301 -130 -88 -34 -189 -75 -225 -91
-36 -16 -91 -36 -122 -45 -32 -9 -151 -55 -265 -102 -115 -47 -225 -90 -247
-96 -35 -11 -40 -10 -57 12 -24 29 -24 40 -1 48 9 3 69 26 132 51 63 25 174
67 245 93 260 95 303 111 460 179 88 38 218 92 288 120 71 28 191 82 268 121
159 79 301 144 439 199 52 21 203 88 335 150 132 61 294 133 360 160 66 27
196 85 288 129 93 45 175 81 183 81 19 0 18 19 -1 27 -19 7 -66 -11 -240 -87
-163 -72 -300 -130 -308 -130 -3 0 -79 -35 -169 -78 -214 -103 -200 -97 -448
-202 -118 -51 -296 -133 -395 -182 -195 -98 -281 -137 -450 -203 -60 -23 -238
-94 -395 -158 -157 -63 -331 -131 -388 -152 -57 -20 -131 -50 -165 -66 -34
-16 -72 -29 -84 -29 -20 0 -100 67 -90 76 2 2 48 15 103 29 54 14 131 37 169
51 39 15 113 42 165 59 96 33 175 65 330 135 47 21 141 61 210 90 69 29 150
63 180 76 30 13 98 40 150 59 52 20 178 76 280 125 221 106 328 154 516 230
77 32 210 91 295 130 85 40 215 101 290 136 75 35 140 64 144 64 16 0 185 84
185 91 0 29 -137 -15 -310 -99 -124 -60 -351 -162 -505 -227 -60 -25 -133 -57
-162 -71 -28 -13 -54 -24 -57 -24 -6 0 -118 -51 -286 -130 -69 -33 -197 -91
-285 -130 -147 -66 -224 -98 -530 -223 -60 -25 -139 -58 -175 -75 -304 -138
-612 -242 -722 -242 -47 0 -42 -3 -194 113 -134 102 -175 118 -509 202 -347
87 -421 109 -604 177 -312 115 -426 201 -433 327 l-3 55 36 7 c19 5 174 9 345
11 l309 3 1 -34 c0 -21 8 -39 20 -48 17 -12 21 -11 37 8 21 26 22 58 2 65 -24
9 -7 24 28 24 144 0 589 82 702 130 l39 17 48 -47 c27 -26 92 -76 146 -111 53
-35 99 -64 101 -66 2 -1 10 -33 17 -70 20 -92 54 -128 122 -127 52 1 153 42
189 76 33 31 30 78 -12 152 -19 35 -35 67 -35 73 0 5 44 31 98 56 176 83 181
81 228 -76 19 -65 57 -112 98 -123 33 -8 218 77 247 115 30 37 23 66 -36 162
-30 49 -55 93 -55 99 0 14 96 84 156 114 56 28 106 33 122 14 5 -7 17 -40 27
-73 23 -82 53 -132 87 -146 25 -10 39 -7 119 26 50 21 108 51 130 67 58 42 55
79 -16 187 -30 46 -55 92 -55 101 0 10 15 31 33 47 41 36 159 103 181 103 20
0 51 -49 72 -115 37 -112 68 -149 125 -147 39 1 235 96 248 120 24 46 13 77
-64 180 l-74 100 42 64 c23 35 55 80 71 101 33 43 116 107 140 107 9 0 46 -15
83 -34 38 -19 95 -46 128 -62 33 -15 80 -47 105 -69 61 -57 79 -65 144 -65 44
0 60 5 85 26 26 22 31 33 31 70 0 86 -40 129 -197 214 -56 30 -101 60 -99 65
4 16 92 17 139 1 24 -8 96 -46 161 -85 65 -39 121 -71 123 -71 2 0 86 -55 186
-122 446 -299 647 -391 932 -429 109 -14 270 -7 345 16 63 19 183 89 253 147
53 45 162 204 197 288 64 155 141 298 189 351 57 64 141 123 204 145 44 15
152 32 177 28 8 -1 18 -3 23 -3z m-2438 -91 c-4 -11 -2 -20 4 -20 5 0 2 -13
-7 -29 -24 -43 -38 -13 -15 33 18 39 28 48 18 16z m2395 -81 c0 -8 5 -6 13 5
11 15 14 16 14 3 0 -8 -11 -20 -24 -26 -13 -6 -22 -7 -19 -2 3 5 -1 22 -9 37
-21 41 -19 51 5 21 11 -14 20 -31 20 -38z m-3327 -3 c121 -49 427 -189 504
-229 50 -27 103 -77 103 -98 0 -24 -5 -24 -39 0 -27 19 -166 87 -336 163 -159
72 -293 123 -397 153 -59 17 -73 35 -40 54 32 19 72 11 205 -43z m1064 32 c-3
-8 -6 -5 -6 6 -1 11 2 17 5 13 3 -3 4 -12 1 -19z m-107 2 c0 -5 -4 -10 -10
-10 -5 0 -10 5 -10 10 0 6 5 10 10 10 6 0 10 -4 10 -10z m-1161 -137 c13 -27
41 -199 41 -260 0 -46 -3 -53 -20 -53 -12 0 -21 8 -24 23 -20 94 -27 141 -33
218 -5 78 -4 89 10 89 9 0 20 -8 26 -17z m1027 -3 c59 -21 140 -67 131 -76 -2
-3 -49 18 -103 45 -55 28 -96 51 -93 51 3 0 32 -9 65 -20z m-1135 -121 c23
-112 24 -149 3 -149 -25 0 -196 93 -202 109 -3 8 -1 16 4 18 5 2 43 28 84 58
41 30 79 53 85 52 5 -2 17 -41 26 -88z m286 58 c37 -14 40 -23 15 -52 -9 -11
-27 -33 -39 -49 -26 -33 -30 -28 -36 57 -4 63 -1 66 60 44z m3298 -87 c3 -6
-1 -7 -9 -4 -18 7 -21 14 -7 14 6 0 13 -4 16 -10z m2 -64 c-1 -6 5 -9 13 -8 8
2 12 0 8 -4 -4 -4 -2 -14 4 -23 7 -9 2 -7 -11 4 -20 16 -23 17 -18 3 8 -23 -2
-29 -27 -16 -19 10 -19 8 4 -18 14 -16 18 -23 10 -16 -22 19 -32 14 -20 -10
10 -22 10 -22 -4 -4 -9 11 -22 16 -31 12 -9 -3 -13 -2 -10 4 3 6 13 10 21 10
8 0 12 5 9 10 -4 6 -1 18 6 26 9 11 14 12 19 4 5 -8 9 -7 13 4 4 9 2 16 -3 16
-6 0 -10 4 -10 8 0 5 7 9 14 9 8 0 14 -5 13 -11z m-3847 -36 c32 -16 96 -52
142 -79 46 -27 113 -63 150 -80 68 -32 111 -71 188 -168 l41 -53 -23 -9 c-13
-6 -45 -19 -72 -31 -27 -11 -50 -19 -51 -18 -2 2 -15 37 -30 79 -28 81 -97
172 -138 184 -12 4 -100 45 -195 92 -140 70 -170 88 -161 99 19 23 85 16 149
-16z m3788 18 c-2 -5 -8 -9 -13 -9 -5 0 -11 4 -13 9 -1 5 4 9 13 9 9 0 14 -4
13 -9z m140 -13 c-3 -3 -9 2 -12 12 -6 14 -5 15 5 6 7 -7 10 -15 7 -18z m-27
-2 c13 -16 12 -17 -3 -4 -10 7 -18 15 -18 17 0 8 8 3 21 -13z m-26 -42 c3 -5
2 -12 -3 -15 -5 -3 -9 1 -9 9 0 17 3 19 12 6z m59 -30 c-2 -3 -12 3 -22 13
-16 17 -16 18 5 5 12 -7 20 -15 17 -18z m-149 -6 c-3 -32 -11 -40 -19 -20 -4
11 -2 14 6 9 7 -5 9 -2 5 8 -3 9 -3 19 0 22 10 10 11 7 8 -19z m70 0 c6 0 16
4 23 9 20 12 40 -10 24 -26 -6 -6 -17 -13 -24 -14 -7 -1 -20 -5 -29 -8 -9 -4
-23 2 -35 15 -10 13 -13 19 -6 15 7 -4 15 -1 18 9 4 9 10 13 13 8 3 -5 11 -8
16 -8z m83 -30 c-3 -3 -9 2 -12 12 -6 14 -5 15 5 6 7 -7 10 -15 7 -18z m-4071
-28 c13 -40 30 -182 25 -209 -2 -11 -13 -18 -27 -18 -21 0 -24 6 -29 53 -18
183 -17 222 8 214 6 -2 16 -20 23 -40z m3948 13 c18 -20 18 -21 -1 -14 -17 7
-18 6 -4 -11 13 -17 13 -18 0 -10 -8 5 -27 10 -43 11 -15 1 -31 5 -35 9 -4 5
1 5 11 2 19 -7 24 9 5 16 -10 4 -10 6 -1 6 6 1 14 -3 18 -9 3 -5 12 -7 20 -4
8 4 12 10 9 15 -10 16 2 10 21 -11z m-94 -9 c-6 -10 -9 -20 -7 -22 2 -2 -2 -9
-8 -15 -10 -9 -16 -7 -24 7 -8 12 -8 19 -2 19 5 0 10 -6 10 -12 1 -7 8 -1 16
15 8 15 17 27 20 27 2 0 0 -8 -5 -19z m203 11 c2 -4 -4 -8 -14 -8 -10 0 -16 4
-14 8 3 4 9 8 14 8 5 0 11 -4 14 -8z m-4185 -77 c16 -110 15 -145 -6 -145 -20
0 -183 91 -183 103 0 7 159 116 171 117 4 0 12 -34 18 -75z m4224 48 c-20 -7
-15 -23 5 -17 12 4 14 3 4 -4 -7 -5 -25 -7 -39 -4 -15 3 -23 1 -20 -4 3 -6 -3
-11 -14 -11 -10 -1 -19 3 -19 9 0 5 -8 7 -17 4 -15 -5 -15 -4 1 9 11 8 25 15
30 15 6 0 5 -4 -3 -9 -9 -6 -10 -11 -2 -15 6 -4 14 -1 17 8 3 9 12 12 21 9 9
-4 14 -2 10 3 -3 6 4 10 16 11 12 0 16 -1 10 -4z m-218 -24 c-4 -5 -14 -8 -23
-8 -15 1 -15 2 1 6 9 2 14 9 11 15 -4 7 -2 8 5 4 6 -4 9 -12 6 -17z m-3695
-49 c0 -3 -16 -15 -35 -28 l-35 -22 0 45 0 45 35 -18 c19 -9 35 -19 35 -22z
m3780 34 c0 -8 -19 -13 -24 -6 -3 5 1 9 9 9 8 0 15 -2 15 -3z m150 -4 c0 -4
-8 -14 -17 -21 -11 -10 -14 -10 -9 -1 4 7 1 12 -8 12 -26 0 -18 15 9 16 14 1
25 -2 25 -6z m-210 -50 c0 -5 -5 -10 -11 -10 -5 0 -7 5 -4 10 3 6 8 10 11 10
2 0 4 -4 4 -10z m88 -35 c-3 -3 -9 2 -12 12 -6 14 -5 15 5 6 7 -7 10 -15 7
-18z m-164 -1 c3 -8 2 -12 -3 -9 -6 3 -14 -3 -20 -12 -9 -15 -10 -14 -7 7 3
14 5 26 5 28 3 8 20 -1 25 -14z m73 -16 c-3 -7 -5 -2 -5 12 0 14 2 19 5 13 2
-7 2 -19 0 -25z m-174 -7 c-4 -28 5 -27 16 2 11 28 36 31 38 5 1 -10 -3 -18
-8 -18 -6 0 -7 5 -4 10 3 6 2 10 -3 10 -6 0 -12 -7 -16 -15 -4 -11 1 -15 17
-15 17 0 19 -2 7 -10 -9 -6 -19 -5 -29 3 -10 8 -9 4 3 -15 16 -25 16 -26 -1
-23 -10 2 -22 4 -27 4 -5 1 -3 7 3 15 8 9 8 16 2 20 -5 4 -13 -4 -17 -16 -6
-21 -7 -21 -21 6 -8 15 -12 30 -9 34 3 3 6 -1 6 -9 0 -11 2 -11 10 1 9 13 10
13 10 0 0 -13 1 -13 10 0 13 20 13 33 0 25 -5 -3 -10 -1 -10 5 0 7 6 10 13 7
6 -2 11 -14 10 -26z m-4085 -37 c141 -79 164 -103 127 -134 -11 -9 -22 -6 -57
18 -24 16 -84 50 -135 75 -50 26 -94 51 -97 56 -4 5 3 16 15 24 26 19 58 11
147 -39z m4007 6 c-3 -5 -12 -10 -18 -10 -7 0 -6 4 3 10 19 12 23 12 15 0z
m189 -1 c3 -3 -4 -5 -14 -6 -11 -1 -22 2 -24 6 -5 8 30 8 38 0z m56 -4 c5 3
10 4 10 1 0 -3 -15 -13 -32 -21 -23 -11 -28 -12 -16 -2 14 11 15 16 5 27 -10
12 -9 12 5 1 9 -7 22 -10 28 -6z m-60 -39 c0 -2 -8 -10 -17 -17 -16 -13 -17
-12 -4 4 13 16 21 21 21 13z m-123 -29 c7 -4 10 -14 6 -22 -3 -8 1 -15 8 -15
7 0 9 -3 6 -6 -4 -4 -13 -1 -22 6 -8 7 -15 9 -15 4 -1 -5 -7 2 -15 16 -11 19
-14 21 -15 8 0 -10 -7 -18 -16 -18 -8 0 -13 -4 -9 -10 3 -5 12 -7 19 -4 8 3
17 0 22 -7 4 -8 3 -10 -5 -5 -6 4 -17 4 -24 -1 -17 -13 -57 -14 -57 -2 0 6 5
7 10 4 10 -6 15 9 10 30 -1 6 2 7 6 3 4 -5 14 1 21 12 14 20 44 23 70 7z
m-4375 -169 c-3 -36 -9 -48 -21 -47 -21 0 -161 81 -162 93 -1 6 39 31 87 57
l89 48 6 -52 c3 -29 4 -73 1 -99z m122 130 c3 -13 9 -62 12 -109 5 -63 4 -88
-5 -94 -24 -14 -33 14 -38 119 -5 91 -4 106 9 106 9 0 18 -10 22 -22z m4021
-20 c5 4 5 -1 2 -10 -4 -10 -2 -18 3 -18 6 0 10 8 11 18 0 13 2 14 6 2 10 -27
24 -39 39 -33 8 3 14 10 14 15 0 7 -5 6 -13 -1 -8 -6 -17 -8 -20 -4 -9 9 -9
23 1 22 4 -1 9 -1 12 1 12 4 54 8 43 4 -15 -7 -18 -44 -3 -44 5 0 7 7 4 15 -7
18 3 19 35 1 15 -8 20 -16 12 -20 -6 -4 -11 -2 -11 3 0 6 -4 11 -10 11 -5 0
-7 -6 -4 -14 3 -8 1 -17 -5 -21 -6 -3 -11 -1 -11 4 0 6 -4 11 -10 11 -5 0 -9
-5 -7 -11 1 -6 -15 -22 -35 -35 -36 -23 -37 -23 -43 -4 -4 11 -10 18 -15 15
-4 -3 -5 5 -2 17 5 19 7 20 10 6 4 -20 17 -23 28 -7 3 6 17 8 32 4 21 -5 23
-4 14 8 -7 7 -25 13 -42 12 -16 -1 -30 3 -30 9 0 6 -5 4 -10 -4 -9 -13 -11
-13 -20 0 -13 19 -13 33 0 25 6 -3 10 -1 10 4 0 6 -7 11 -16 11 -8 0 -12 5 -9
10 5 8 11 8 19 1 7 -6 17 -7 21 -3z m-3524 -21 c41 -34 139 -146 139 -157 0
-9 -117 -70 -133 -70 -3 0 -10 21 -16 47 -7 25 -27 75 -46 110 -19 35 -31 71
-28 79 8 21 55 17 84 -9z m4151 5 c-13 -10 -45 -29 -70 -43 -52 -26 -69 -37
-157 -96 -55 -36 -108 -69 -338 -207 -45 -27 -145 -82 -222 -121 -184 -94
-443 -228 -687 -354 -132 -68 -223 -108 -274 -121 -150 -39 -178 -20 -56 37
42 20 94 47 115 61 43 26 153 83 517 269 273 139 456 237 623 332 62 35 159
90 217 123 127 72 171 88 217 81 19 -3 38 -1 42 4 6 10 80 52 91 52 3 0 -5 -8
-18 -17z m-4477 -22 c18 0 18 -2 -5 -21 -54 -43 -60 -43 -60 -3 0 33 2 36 23
30 12 -3 31 -6 42 -6z m3831 -45 c-3 -9 1 -18 9 -21 23 -9 18 -30 -11 -43 -28
-12 -44 -7 -44 15 0 16 12 18 26 4 7 -7 11 -6 11 4 0 8 -4 13 -9 10 -4 -3 -8
-1 -8 5 0 6 -6 9 -12 7 -7 -1 -10 -1 -5 1 4 3 4 10 0 16 -4 8 -1 7 9 -1 13
-10 17 -10 22 3 3 8 8 15 12 15 3 0 3 -7 0 -15z m-4383 -66 c38 -21 72 -39 75
-39 4 -1 20 -11 36 -25 26 -21 28 -27 20 -53 l-9 -29 -128 77 c-155 93 -158
96 -126 109 31 12 50 7 132 -40z m4324 -5 c-3 -3 -12 -4 -19 -1 -8 3 -5 6 6 6
11 1 17 -2 13 -5z m-4607 -139 c0 -41 -4 -75 -8 -75 -14 0 -79 53 -101 81
l-21 27 33 6 c19 3 42 13 53 21 37 28 44 19 44 -60z m124 -10 c8 -64 7 -70
-14 -87 -39 -31 -43 -24 -37 63 4 44 9 85 13 90 14 24 30 -2 38 -66z m4346 56
c0 -6 -4 -13 -10 -16 -5 -3 -10 1 -10 9 0 9 5 16 10 16 6 0 10 -4 10 -9z
m-3889 -31 c17 -10 148 -177 149 -191 0 -12 -121 -62 -129 -53 -5 5 -18 36
-31 69 -12 33 -30 74 -41 91 -19 31 -25 75 -12 87 10 10 42 8 64 -3z m-327
-38 c2 -4 -7 -12 -20 -19 -21 -10 -24 -9 -24 8 0 19 33 28 44 11z m-409 -75
c50 -40 111 -85 136 -99 32 -19 59 -47 88 -92 24 -36 40 -69 37 -74 -9 -15
-84 -45 -99 -39 -8 3 -18 24 -22 46 -10 60 -56 123 -130 180 -109 82 -159 132
-144 142 27 17 45 8 134 -64z m5300 -37 c-3 -5 -12 -10 -18 -10 -7 0 -6 4 3
10 19 12 23 12 15 0z m526 -61 c84 -86 102 -126 94 -200 -4 -33 -11 -59 -15
-59 -4 0 -6 -9 -3 -20 8 -30 -26 -172 -39 -164 -8 5 -9 1 -5 -10 9 -24 -2 -68
-16 -59 -6 4 -8 0 -4 -10 4 -10 -11 -50 -36 -99 -49 -97 -151 -208 -243 -269
-137 -89 -340 -135 -559 -126 -151 5 -468 47 -640 84 -264 57 -259 56 -525 57
-331 0 -498 -25 -860 -130 -199 -58 -281 -87 -715 -259 -388 -153 -783 -269
-1112 -325 -401 -68 -1099 -60 -1436 16 -59 13 -142 31 -185 39 -80 15 -186
45 -432 122 -347 108 -772 306 -934 434 -48 38 -120 68 -133 56 -12 -12 27
-93 60 -124 81 -77 515 -312 742 -401 344 -135 656 -222 970 -272 254 -40 482
-51 799 -40 363 13 558 36 850 101 258 57 688 203 1086 369 204 85 602 205
715 215 17 2 31 4 33 4 1 1 4 1 7 2 2 0 18 4 34 9 19 5 33 4 40 -3 8 -8 11 -6
11 8 0 15 2 17 9 7 7 -11 9 -11 13 0 3 7 17 14 32 16 20 1 26 -3 26 -19 0 -13
-4 -18 -12 -13 -7 4 -8 3 -4 -5 4 -6 12 -9 17 -6 5 4 9 -2 10 -12 0 -11 3 -13
6 -5 2 6 9 10 13 7 5 -3 12 0 16 6 4 7 3 9 -3 6 -6 -4 -10 6 -11 24 -1 25 2
28 14 19 7 -7 11 -17 7 -23 -3 -6 -1 -7 5 -3 7 4 12 1 12 -6 0 -9 3 -9 10 2 8
13 10 12 11 -5 1 -19 2 -19 6 -1 4 15 7 16 15 5 7 -10 8 -8 3 7 -3 13 0 28 10
38 17 16 45 12 45 -8 0 -6 4 -4 10 4 5 8 12 11 16 7 4 -4 14 -1 22 6 12 10 16
9 20 -2 4 -11 6 -11 13 0 8 12 11 11 19 -1 6 -10 10 -11 10 -2 0 9 33 12 130
12 104 0 130 -3 130 -14 0 -9 -20 -16 -65 -21 -36 -3 -109 -15 -163 -24 -53
-10 -107 -17 -120 -16 -12 1 -22 -3 -22 -8 0 -5 -9 -7 -20 -4 -11 3 -18 2 -15
-3 3 -4 -2 -10 -9 -13 -8 -3 -16 -1 -18 4 -2 6 -11 7 -21 4 -9 -4 -15 -10 -12
-15 2 -4 -30 -16 -72 -28 -59 -16 -79 -18 -85 -9 -6 9 -8 8 -8 -3 0 -23 -157
-75 -176 -59 -12 10 -12 14 -2 20 7 5 8 9 2 9 -18 0 -24 -12 -14 -30 8 -16 1
-22 -53 -43 -58 -24 -89 -27 -57 -7 12 8 12 10 2 10 -8 0 -16 -9 -19 -20 -5
-17 -66 -47 -85 -42 -5 1 -8 -2 -8 -8 0 -5 -6 -10 -13 -10 -7 0 -82 -36 -167
-79 -172 -88 -326 -155 -339 -146 -5 2 -11 -1 -14 -8 -2 -7 -29 -21 -58 -31
-30 -11 -78 -32 -106 -49 -29 -16 -53 -24 -53 -18 0 6 -10 11 -22 10 -22 0
-22 -1 -3 -8 16 -7 9 -12 -42 -31 -34 -12 -65 -21 -69 -20 -4 1 -11 -4 -15
-12 -7 -11 -11 -10 -19 2 -8 13 -10 12 -10 -3 0 -10 -4 -15 -10 -12 -5 3 -10
1 -10 -5 0 -7 -7 -9 -16 -6 -9 4 -13 2 -8 -5 4 -7 1 -10 -7 -7 -8 3 -20 -2
-28 -9 -7 -8 -20 -12 -27 -9 -8 3 -14 -1 -14 -9 0 -9 -6 -12 -15 -9 -8 4 -15
1 -15 -5 0 -6 -7 -8 -17 -4 -9 4 -14 2 -10 -4 7 -12 -148 -77 -163 -68 -5 3
-10 2 -10 -3 0 -6 -7 -13 -16 -16 -10 -4 -13 -2 -9 7 4 6 -1 3 -9 -7 -9 -11
-16 -14 -16 -8 0 7 -4 12 -10 12 -5 0 -7 -6 -5 -12 3 -9 -24 -22 -80 -39 -55
-17 -85 -23 -85 -15 0 8 -3 7 -8 -1 -4 -7 -30 -17 -57 -23 -103 -23 -374 -70
-441 -76 -139 -12 -144 -12 -144 0 0 6 -4 5 -9 -3 -26 -41 -867 33 -1181 104
-326 74 -670 212 -965 389 -353 212 -671 512 -704 665 -16 74 -20 120 -12 125
4 3 61 -26 127 -64 311 -182 540 -277 949 -393 306 -88 680 -154 1055 -188
170 -15 718 -6 865 15 504 72 920 191 1485 425 312 129 507 198 797 280 204
58 265 68 481 82 217 13 416 8 541 -15 46 -9 194 -32 330 -52 318 -48 513 -53
631 -16 110 35 223 97 283 156 111 109 208 294 254 481 28 117 30 125 38 125
4 0 33 -28 66 -61z m-651 -14 c0 -6 -56 -35 -67 -35 -4 1 8 9 27 20 39 22 40
22 40 15z m-420 -115 c-19 -11 -39 -19 -45 -19 -5 0 6 8 25 19 19 11 40 19 45
19 6 0 -6 -8 -25 -19z m-6660 -18 c0 -73 77 -175 185 -246 132 -88 379 -190
644 -265 133 -38 165 -46 441 -111 74 -18 162 -45 195 -61 69 -32 185 -121
167 -127 -9 -3 -8 -7 1 -17 7 -7 15 -11 19 -8 11 6 98 -69 92 -79 -3 -4 -1 -8
5 -8 6 0 27 -14 47 -32 32 -28 34 -33 18 -39 -18 -7 -18 -8 -1 -8 12 -1 16 -5
11 -13 -6 -10 -5 -10 7 -1 13 10 26 1 80 -53 l64 -65 -44 3 c-42 2 -43 2 -23
19 12 9 18 19 15 23 -4 3 -15 -2 -26 -11 -18 -17 -70 -27 -61 -12 2 4 -5 7
-16 6 -11 -1 -20 -6 -20 -12 0 -5 -5 -3 -10 5 -9 13 -10 13 -11 0 0 -10 -3 -8
-9 5 -5 11 -9 14 -9 8 -1 -7 -10 -13 -22 -13 -11 0 -17 5 -14 10 3 6 1 10 -4
10 -6 0 -11 -6 -12 -12 0 -7 -4 -4 -9 7 -5 11 -9 14 -9 6 -1 -11 -4 -11 -18 0
-9 8 -14 9 -10 3 4 -8 -2 -11 -18 -10 -14 0 -25 4 -25 7 0 4 -16 6 -35 4 -27
-1 -35 1 -31 11 3 8 1 14 -4 14 -6 0 -10 -5 -10 -10 0 -13 -83 -3 -88 11 -2 5
-8 9 -13 9 -6 0 -7 -6 -3 -12 5 -10 4 -10 -6 -1 -14 13 -5 33 16 33 8 0 14 5
14 11 0 5 -4 7 -10 4 -5 -3 -12 6 -16 21 -5 18 -9 22 -15 13 -5 -8 -3 -16 4
-21 12 -8 -9 -58 -25 -58 -5 0 -6 5 -3 10 3 6 1 10 -4 10 -6 0 -11 -6 -12 -12
0 -7 -4 -4 -9 7 -7 15 -9 16 -9 4 -1 -14 -8 -15 -42 -9 -23 4 -45 14 -50 21
-5 9 -9 10 -9 2 0 -13 -2 -13 -175 34 -71 20 -136 36 -142 36 -7 0 -13 7 -13
16 0 13 -2 13 -9 3 -12 -19 -91 5 -91 27 0 12 -2 13 -8 3 -7 -10 -23 -8 -78 8
-136 41 -134 40 -135 63 -1 17 -2 18 -6 5 -5 -21 -5 -21 -37 -7 -14 7 -23 16
-19 22 3 6 1 7 -5 3 -15 -9 -133 34 -126 45 3 5 -2 6 -10 3 -19 -7 -197 76
-189 89 3 5 1 7 -4 4 -12 -8 -216 85 -310 141 -73 43 -72 42 -49 202 8 52 17
127 21 165 9 82 14 93 67 151 40 43 58 48 58 16z m6600 -7 c0 -2 -13 -11 -30
-20 -38 -19 -40 -11 -2 9 31 17 32 18 32 11z m60 -92 c-109 -52 -140 -64 -140
-58 0 11 203 104 225 104 6 0 -33 -21 -85 -46z m-1030 13 c0 -2 -7 -7 -16 -10
-8 -3 -12 -2 -9 4 6 10 25 14 25 6z m2368 -445 c-28 -60 -62 -121 -75 -135
-12 -14 -23 -30 -23 -36 0 -5 -4 -10 -10 -10 -5 0 -10 -7 -10 -15 0 -14 -12
-20 -33 -16 -5 1 -6 -3 -2 -9 10 -16 -15 -41 -36 -35 -13 5 -16 1 -12 -14 5
-21 -27 -38 -48 -25 -8 4 -9 3 -5 -4 4 -7 2 -20 -3 -29 -8 -14 -10 -15 -11 -3
0 13 -1 13 -10 0 -9 -13 -11 -13 -20 0 -6 10 -10 11 -10 3 0 -7 -5 -13 -11
-13 -5 0 -7 6 -3 13 4 6 3 8 -1 4 -17 -14 -14 -36 3 -30 12 4 11 1 -3 -10 -28
-23 -38 -21 -31 7 3 14 2 28 -4 31 -5 3 -10 11 -10 17 0 6 3 9 6 6 3 -3 19 7
36 24 16 16 35 27 41 25 7 -2 17 6 23 17 6 12 16 20 22 18 7 -1 12 3 12 8 0 6
27 39 61 73 67 69 123 171 142 262 l11 57 33 -35 32 -36 -51 -110z m190 -178
c-4 -74 -10 -102 -41 -173 -21 -47 -54 -110 -74 -140 -53 -81 -133 -171 -146
-163 -5 3 -7 2 -4 -4 8 -13 -80 -106 -121 -127 -18 -9 -30 -21 -27 -25 2 -5
-12 -21 -33 -37 -20 -15 -39 -32 -41 -37 -7 -19 -243 -164 -370 -229 -201
-102 -618 -233 -629 -198 -3 7 -9 5 -16 -4 -7 -11 -48 -21 -126 -32 -95 -14
-160 -15 -370 -9 -298 8 -438 23 -280 30 30 1 80 5 110 9 30 4 70 9 89 11 18
2 36 7 39 10 3 2 11 0 19 -7 10 -8 12 -8 8 4 -3 8 0 15 7 15 7 0 45 16 85 36
39 19 74 33 77 30 3 -4 6 0 6 8 0 11 2 11 10 -1 8 -13 10 -12 10 4 0 11 3 17
6 14 3 -3 15 3 27 14 12 11 76 59 142 107 190 139 340 308 442 496 43 81 52
90 78 92 36 2 105 13 123 18 6 3 12 -1 13 -8 0 -9 2 -8 6 1 4 10 8 10 19 1 12
-9 13 -9 9 3 -4 10 2 14 20 14 14 0 25 -5 26 -10 0 -6 4 -2 9 9 7 16 9 17 9 3
1 -9 5 -19 10 -22 5 -4 7 4 4 16 -4 22 -4 22 11 -2 l16 -25 -6 30 c-4 23 -3
26 5 15 8 -11 11 -12 11 -2 0 7 4 11 9 7 5 -3 13 0 16 6 4 5 13 8 21 5 8 -3
14 -1 14 5 0 6 5 7 10 4 6 -3 10 -2 10 4 0 6 7 8 16 4 9 -3 19 -1 23 6 5 8 13
5 26 -9 12 -14 14 -20 5 -20 -9 0 -7 -7 6 -22 10 -12 13 -18 7 -14 -16 9 -17
-6 -1 -22 9 -9 9 -12 1 -12 -7 0 -15 9 -18 20 -4 11 -10 18 -15 15 -5 -3 -12
0 -16 6 -5 8 -3 9 6 4 8 -5 11 -3 8 6 -3 8 -11 13 -17 11 -7 -1 -10 2 -6 8 3
5 1 10 -6 10 -6 0 -9 -8 -6 -20 3 -11 1 -18 -4 -14 -5 3 -9 0 -9 -6 0 -6 -5
-8 -11 -4 -8 4 -7 9 2 15 7 4 10 12 5 16 -5 4 -11 2 -13 -5 -4 -10 -8 -10 -21
0 -13 10 -14 10 -8 0 4 -7 3 -11 -4 -10 -13 3 -43 -69 -34 -83 3 -5 1 -9 -5
-9 -5 0 -12 6 -14 13 -4 9 -6 9 -6 0 -1 -7 11 -20 27 -28 15 -9 19 -14 8 -11
-13 5 -17 2 -12 -9 3 -8 1 -15 -4 -15 -6 0 -10 6 -10 14 0 8 -4 18 -10 21 -6
4 -7 -1 -3 -11 4 -12 3 -15 -5 -10 -7 4 -12 2 -12 -3 0 -6 -3 -10 -7 -10 -25
4 -43 -3 -43 -16 0 -8 8 -15 18 -15 13 0 14 2 4 9 -11 7 -11 9 2 14 10 4 16 1
16 -6 0 -7 10 -24 21 -36 17 -18 23 -20 30 -10 4 7 10 11 13 9 2 -3 -2 -14
-10 -24 -8 -11 -14 -14 -14 -8 0 7 -5 12 -11 12 -5 0 -7 -6 -3 -12 5 -9 2 -9
-9 1 -9 7 -17 9 -17 3 0 -16 25 -31 46 -28 10 2 13 1 7 -1 -13 -4 -18 -18 -13
-38 1 -5 3 -15 4 -22 4 -25 15 -24 22 2 5 18 2 30 -7 36 -9 6 -10 9 -2 9 6 0
15 -5 18 -10 4 -6 10 -8 15 -5 5 3 11 1 15 -5 3 -5 -1 -10 -10 -10 -9 0 -13
-4 -10 -10 3 -5 1 -10 -4 -10 -6 0 -11 -4 -11 -9 0 -4 12 -7 28 -5 15 2 19 1
9 -2 -9 -3 -14 -10 -11 -16 4 -7 2 -8 -4 -4 -7 4 -12 1 -13 -6 0 -7 -4 -4 -9
7 -8 19 -9 18 -9 -4 -1 -20 3 -23 26 -18 26 5 27 5 6 -12 -11 -9 -23 -23 -26
-31 -4 -12 -6 -11 -6 3 -1 10 -6 15 -11 12 -6 -4 -7 -11 -4 -17 4 -7 2 -8 -4
-4 -12 7 -5 36 8 36 5 0 6 9 3 20 -3 11 -10 20 -15 20 -5 0 -6 5 -3 10 3 6 1
10 -5 10 -7 0 -9 8 -5 20 4 12 2 20 -5 20 -6 0 -9 -4 -6 -8 2 -4 0 -14 -6 -22
-8 -12 -9 -12 -4 3 3 9 1 17 -4 17 -6 0 -10 -4 -10 -10 0 -5 -4 -10 -9 -10 -5
0 -8 8 -6 18 1 9 0 11 -2 5 -5 -15 -33 -17 -33 -3 0 6 -11 8 -25 4 -20 -5 -25
-2 -26 12 -1 16 -2 17 -6 2 -3 -11 -11 -15 -21 -12 -13 5 -14 4 -3 -4 8 -6 11
-19 7 -33 -4 -18 -2 -16 9 6 11 24 14 26 15 10 1 -11 4 -14 7 -8 3 10 8 10 19
-1 9 -10 29 -13 59 -11 25 2 45 0 45 -6 0 -5 -7 -9 -16 -9 -8 0 -12 -5 -9 -10
4 -6 1 -18 -6 -26 -10 -12 -9 -13 7 -8 16 5 16 4 4 -5 -20 -14 -30 -14 -30 2
0 6 -8 21 -17 32 -12 15 -14 16 -10 3 4 -12 1 -16 -14 -15 -10 1 -19 5 -19 9
0 4 -5 8 -11 8 -8 0 -8 -5 1 -15 10 -12 10 -15 -1 -16 -8 0 -5 -4 6 -9 18 -8
18 -9 2 -9 -10 -1 -20 -8 -23 -16 -4 -8 -10 -13 -14 -10 -5 3 -7 -7 -4 -22 2
-16 1 -23 -3 -17 -12 18 -58 22 -58 5 0 -17 35 -24 36 -8 0 7 4 2 9 -11 13
-31 2 -56 -17 -41 -11 9 -17 9 -26 0 -9 -10 -8 -11 6 -6 10 5 17 2 17 -6 0 -7
-3 -9 -7 -6 -3 4 -13 1 -21 -5 -11 -10 -17 -8 -28 7 -8 10 -14 14 -14 8 0 -6
-9 -9 -20 -6 -22 6 -29 -20 -8 -33 8 -5 9 -2 5 10 -4 10 -3 15 3 11 19 -12 10
-35 -16 -41 l-27 -7 24 -13 c13 -7 19 -13 14 -14 -6 0 -21 7 -34 16 -18 13
-20 18 -10 25 8 5 9 9 3 9 -18 0 -24 -12 -13 -26 8 -10 4 -12 -18 -10 -20 3
-27 8 -25 21 2 11 -1 14 -9 9 -8 -5 -10 -3 -4 6 4 7 2 16 -5 20 -9 6 -9 9 0
15 7 4 13 -1 17 -14 3 -12 13 -21 22 -21 14 0 14 2 1 11 -12 8 -8 9 15 6 17
-2 25 -2 18 0 -7 2 -10 10 -7 17 3 8 -6 26 -19 40 -18 19 -27 23 -30 14 -4 -9
-6 -7 -6 4 -1 9 6 23 14 32 9 9 11 17 5 21 -5 3 -10 1 -10 -5 0 -6 -4 -8 -10
-5 -6 4 -7 -1 -3 -11 5 -13 3 -16 -9 -11 -15 5 -15 3 0 -24 16 -28 16 -31 -2
-44 -15 -11 -23 -12 -33 -3 -10 8 -12 7 -8 -5 4 -8 16 -17 27 -20 11 -3 17
-10 13 -16 -3 -6 -12 -8 -18 -5 -8 5 -8 3 1 -7 6 -7 12 -20 12 -29 0 -10 -6
-6 -18 11 -17 25 -17 26 -36 8 -11 -11 -16 -22 -13 -26 4 -3 7 -1 7 6 0 7 5 9
10 6 6 -4 7 -11 4 -17 -4 -7 -2 -8 4 -4 6 4 9 14 6 24 -5 14 -3 14 10 -2 18
-22 21 -41 7 -31 -5 3 -13 1 -16 -5 -5 -8 -11 -8 -20 0 -10 8 -15 8 -21 -1 -5
-8 -3 -9 6 -4 9 5 11 4 6 -4 -9 -15 -26 -5 -26 16 0 9 -6 13 -14 10 -7 -3 -18
-1 -24 5 -8 8 -9 5 -5 -11 5 -18 8 -19 21 -9 13 11 14 10 10 -2 -8 -26 -33
-22 -46 7 -7 18 -9 20 -6 6 4 -19 2 -22 -13 -17 -15 4 -14 3 2 -7 31 -19 47
-49 25 -49 -5 0 -11 8 -11 18 -1 15 -2 15 -6 -1 -3 -12 -10 -16 -20 -13 -13 5
-14 4 -3 -9 10 -12 10 -15 -4 -16 -20 -2 -25 -3 -59 -17 -22 -9 -27 -17 -22
-32 4 -13 2 -20 -6 -20 -7 0 -21 -7 -31 -17 -10 -9 -18 -11 -18 -5 0 6 5 14
10 17 6 3 10 12 10 18 0 7 -5 4 -11 -6 -8 -13 -14 -15 -30 -7 -10 6 -19 8 -19
4 0 -3 -7 -1 -15 6 -13 11 -14 10 -9 -5 6 -14 4 -16 -6 -10 -9 5 -11 4 -6 -4
4 -6 12 -8 18 -5 7 5 8 2 4 -5 -5 -7 -14 -10 -22 -7 -9 3 -11 0 -7 -12 5 -14
3 -14 -18 3 -18 15 -20 16 -10 3 13 -17 2 -26 -13 -11 -3 4 -13 8 -22 9 -10 2
-13 -3 -9 -17 5 -14 3 -17 -9 -13 -9 3 -13 10 -10 16 3 5 -3 4 -15 -4 -18 -11
-23 -10 -36 7 -8 11 -15 16 -14 10 3 -22 -2 -29 -11 -15 -8 12 -10 12 -10 1 0
-11 -3 -11 -15 -1 -13 11 -15 10 -9 -6 5 -16 2 -15 -15 5 -12 13 -21 19 -21
14 0 -18 35 -40 60 -38 14 1 28 -3 32 -9 6 -8 8 -8 8 0 0 7 20 10 55 8 30 -2
55 1 55 7 0 5 5 9 11 9 5 0 8 -4 5 -8 -3 -5 1 -9 9 -9 8 0 15 5 15 11 0 6 5 4
10 -4 8 -13 10 -13 10 2 0 9 -6 19 -12 21 -7 3 -1 6 15 6 15 1 27 6 27 12 0 5
-4 8 -8 5 -5 -3 -9 1 -9 8 0 8 6 12 14 9 7 -3 13 -11 13 -18 0 -23 24 -23 38
-1 8 13 11 15 8 4 -3 -9 0 -19 7 -22 7 -2 4 -5 -5 -5 -10 -1 -18 -6 -18 -11 0
-7 6 -7 18 -1 10 5 24 6 32 1 15 -10 42 18 33 34 -4 5 -1 6 6 2 6 -4 9 -12 6
-17 -4 -5 4 -5 19 1 14 5 26 7 26 4 0 -4 6 -2 13 3 6 5 24 9 40 8 15 0 27 2
27 5 0 3 9 6 20 7 11 1 20 -3 20 -10 0 -6 6 -3 13 8 8 10 19 15 25 11 7 -4 12
-1 12 7 0 10 9 13 30 11 37 -4 38 5 3 30 -26 19 -26 19 -19 0 7 -18 6 -18 -11
-2 -14 15 -15 20 -4 30 11 11 12 10 6 -1 -5 -9 -4 -12 3 -7 6 3 13 2 17 -3 3
-6 13 -8 23 -5 13 5 14 4 3 -4 -21 -15 20 -25 52 -13 14 5 29 7 33 3 5 -4 3 0
-3 8 -9 13 -5 15 28 16 21 1 69 17 106 35 38 18 74 33 80 32 7 0 10 3 7 8 -3
5 3 12 13 15 10 3 36 14 59 24 37 17 41 17 51 1 10 -14 11 -13 7 4 -4 16 3 25
28 38 39 20 71 40 78 48 12 15 51 29 62 23 7 -4 8 -3 4 4 -12 19 4 35 20 21
12 -9 13 -9 9 2 -3 9 10 23 35 39 22 13 42 30 44 37 3 7 12 13 20 13 7 0 17 7
20 16 4 10 12 14 23 10 10 -4 14 -4 11 0 -9 8 9 44 23 44 12 0 57 46 124 125
84 101 111 139 133 182 22 42 42 63 42 44 0 -5 -4 -12 -9 -15 -5 -4 -16 -27
-25 -54 l-16 -47 26 29 c21 22 28 40 29 75 1 25 9 64 19 86 17 38 44 132 67
224 17 72 32 36 27 -66z m-548 -165 c0 -5 -4 -6 -10 -3 -13 8 -13 -11 1 -38 8
-16 3 -13 -16 8 -22 25 -24 26 -15 6 10 -19 9 -22 -1 -16 -9 6 -11 4 -6 -7 6
-16 -15 -19 -29 -5 -13 13 -23 7 -17 -10 4 -11 3 -14 -5 -9 -7 4 -12 19 -12
33 0 25 0 26 20 8 11 -10 20 -13 20 -7 0 7 -4 12 -10 12 -5 0 -10 5 -10 12 0
6 9 3 20 -7 11 -10 20 -13 20 -7 0 6 -5 14 -10 17 -15 9 -1 27 16 21 8 -3 13
-2 13 2 -3 19 2 23 16 12 8 -7 15 -17 15 -22z m-2177 -14 c-5 -13 -7 -13 -14
-2 -7 10 -9 11 -9 0 0 -7 -4 -10 -10 -7 -5 3 -10 11 -10 16 0 6 4 8 9 4 5 -3
12 -1 16 5 10 15 25 2 18 -16z m-80 -9 c4 -8 2 -17 -3 -20 -6 -4 -10 3 -10 14
0 25 6 27 13 6z m2131 -31 c5 -14 4 -15 -9 -4 -17 14 -19 20 -6 20 5 0 12 -7
15 -16z m-1105 -48 c-10 -9 -394 -163 -544 -217 -44 -17 -147 -56 -230 -89
-532 -209 -535 -210 -591 -210 -17 0 -43 -9 -57 -20 -27 -22 -42 -26 -32 -10
3 6 -1 10 -9 10 -9 0 -16 -5 -16 -11 0 -8 -4 -8 -12 -1 -7 6 -17 12 -23 14 -5
1 -9 7 -7 11 1 5 -2 6 -7 3 -5 -3 -16 -3 -25 0 -12 5 -13 10 -5 25 11 22 0 25
-20 7 -11 -11 -12 -9 -3 7 14 28 58 66 117 103 54 33 316 156 430 202 104 41
522 160 596 169 64 7 445 14 438 7z m1501 -19 c0 -7 -4 -6 -10 3 -8 12 -10 12
-10 1 0 -8 -3 -12 -6 -8 -9 9 6 28 17 22 5 -4 9 -12 9 -18z m-1290 4 c44 -7
44 -8 15 -15 -52 -14 -168 -58 -228 -88 -32 -16 -133 -57 -225 -92 -92 -35
-221 -85 -287 -111 -66 -25 -192 -74 -280 -107 -88 -33 -194 -73 -235 -90
-103 -42 -209 -70 -247 -66 -18 2 -33 1 -33 -4 0 -4 -7 -5 -15 -2 -9 4 -15 0
-15 -7 -1 -9 -4 -8 -11 4 -8 14 -14 15 -24 7 -11 -9 -12 -7 -8 9 7 26 33 50
33 30 0 -11 2 -11 8 -1 5 7 22 14 38 17 60 8 541 188 909 339 44 18 114 45
156 60 41 15 120 49 175 76 87 43 107 48 164 48 36 0 85 -3 110 -7z m774 -6
c-5 19 -5 19 9 2 8 -10 21 -15 31 -11 9 3 16 1 16 -6 0 -6 4 -9 9 -6 5 3 14 0
19 -7 8 -10 6 -13 -9 -14 -10 -1 -19 1 -19 5 0 4 -8 8 -19 8 -11 0 -17 -6 -14
-12 3 -9 -3 -11 -19 -7 -19 4 -20 3 -8 -7 13 -10 12 -11 -4 -6 -13 5 -17 2
-12 -9 8 -22 -2 -18 -15 6 -8 15 -8 19 0 15 7 -4 10 0 9 11 0 10 0 27 0 37 2
20 2 20 17 0 15 -19 15 -19 9 1z m-571 -14 c14 -5 11 -9 -20 -20 -21 -7 -76
-33 -124 -56 -142 -72 -433 -191 -814 -334 -88 -32 -185 -70 -215 -84 -30 -13
-89 -34 -130 -46 -41 -13 -100 -33 -130 -46 -32 -13 -88 -25 -134 -29 -72 -5
-77 -5 -65 11 20 24 135 74 294 127 77 26 174 63 216 81 42 18 150 61 240 96
365 138 472 181 679 274 75 33 158 44 203 26z m978 -28 c13 -16 12 -17 -3 -4
-10 7 -18 15 -18 17 0 8 8 3 21 -13z m44 7 c-3 -5 -12 -10 -18 -10 -7 0 -6 4
3 10 19 12 23 12 15 0z m-213 -27 c-6 -2 -10 -9 -7 -13 3 -5 1 -11 -4 -14 -7
-5 -8 11 -2 32 1 1 7 2 14 1 9 0 9 -2 -1 -6z m218 1 c0 -8 -19 -13 -24 -6 -3
5 1 9 9 9 8 0 15 -2 15 -3z m35 -12 c-3 -3 -11 0 -18 7 -9 10 -8 11 6 5 10 -3
15 -9 12 -12z m-1035 -2 c0 -6 -7 -24 -15 -41 -12 -23 -42 -42 -123 -83 -59
-29 -120 -57 -137 -63 -56 -21 -179 -70 -405 -161 -124 -49 -256 -100 -295
-111 -38 -12 -129 -44 -201 -71 -218 -82 -344 -107 -344 -69 0 8 5 7 15 -1 13
-11 14 -10 10 1 -4 10 14 25 57 47 35 18 68 32 75 32 6 0 85 27 175 61 89 33
206 76 258 95 52 19 140 53 195 76 55 22 129 52 165 65 154 58 298 117 330
136 30 19 213 94 233 96 4 1 7 -4 7 -9z m578 -37 c14 -12 14 -13 0 -13 -9 0
-19 -7 -22 -16 -4 -11 -13 -14 -28 -11 -28 8 -10 -9 21 -18 18 -5 22 -4 16 5
-5 9 -4 11 4 6 6 -4 9 -11 6 -16 -3 -5 12 -6 32 -3 21 3 36 3 33 0 -3 -3 -21
-8 -40 -10 -19 -2 -43 -7 -52 -11 -56 -20 -65 -16 -20 8 l27 15 -25 2 c-14 1
-32 3 -40 4 -23 1 -40 15 -40 32 0 12 6 14 28 8 15 -3 38 -8 52 -11 25 -5 25
-5 4 8 -18 10 -19 15 -9 25 7 6 16 9 19 6 3 -4 6 2 7 13 0 14 2 15 6 4 3 -8
12 -21 21 -27z m22 16 c0 -5 -7 -9 -15 -9 -15 0 -20 12 -9 23 8 8 24 -1 24
-14z m116 9 c-12 -7 -21 -7 -28 0 -6 6 0 10 18 10 23 0 24 -2 10 -10z m184 2
c0 -5 -2 -10 -4 -10 -2 0 -12 -3 -22 -7 -16 -6 -17 -5 -4 10 17 19 30 22 30 7z
m76 -1 c3 -6 1 -16 -6 -22 -10 -9 -11 -9 -5 2 4 8 2 17 -6 22 -9 6 -10 9 -2 9
6 0 15 -5 19 -11z m-345 -8 c7 11 9 10 9 -4 0 -14 6 -17 33 -14 17 2 23 2 12
-1 -19 -4 -19 -5 -1 -11 15 -6 11 -9 -17 -18 -30 -9 -35 -8 -30 4 4 9 -1 20
-10 25 -10 5 -17 14 -16 21 0 8 3 7 6 -2 5 -11 7 -11 14 0z m149 -14 c-9 -7
-14 -19 -12 -29 2 -9 -1 -19 -7 -22 -5 -4 -7 3 -4 15 5 19 3 21 -21 17 -34 -7
-25 3 17 18 42 15 45 16 27 1z m-4813 -3 c-3 -3 -12 -4 -19 -1 -8 3 -5 6 6 6
11 1 17 -2 13 -5z m4928 -7 c-34 -23 -55 -28 -48 -11 3 8 12 13 19 10 7 -3 16
-1 19 4 4 6 11 10 18 10 6 0 3 -6 -8 -13z m-289 -12 c-3 -8 -1 -15 4 -15 6 0
10 -4 10 -8 0 -5 -7 -9 -15 -9 -8 0 -12 4 -9 9 3 4 -3 9 -13 9 -17 1 -17 2 0
6 9 2 17 9 17 14 0 5 3 9 6 9 3 0 4 -7 0 -15z m134 -19 c-10 -13 -40 -12 -40
1 0 3 7 3 15 -1 8 -3 15 -1 15 4 0 6 5 10 11 10 8 0 8 -4 -1 -14z m90 10 c0
-2 -7 -9 -15 -16 -13 -11 -14 -10 -9 4 5 14 24 23 24 12z m81 -29 c-10 -9 -11
-8 -5 6 3 10 9 15 12 12 3 -3 0 -11 -7 -18z m-211 -29 c10 -3 8 -6 -8 -10 -12
-4 -20 -2 -16 3 3 5 -2 9 -11 9 -10 0 -13 -5 -9 -12 5 -7 3 -8 -6 -3 -10 6 -9
11 5 22 11 7 21 9 24 4 3 -4 13 -10 21 -13z m174 4 c3 -5 -1 -9 -9 -9 -8 0
-12 4 -9 9 3 4 7 8 9 8 2 0 6 -4 9 -8z m-264 -13 c-13 -6 -27 -15 -31 -20 -4
-7 -9 -4 -12 6 -4 9 -3 14 1 11 4 -2 14 -1 22 5 8 5 22 8 30 8 8 0 4 -5 -10
-10z m116 -14 c-1 -8 -5 -17 -8 -21 -5 -4 -4 16 1 34 3 9 9 -1 7 -13z m-821
-22 c-47 -74 -109 -118 -210 -152 -72 -24 -215 -78 -310 -118 -173 -74 -386
-153 -450 -168 -38 -9 -101 -24 -140 -33 -50 -13 -76 -14 -92 -7 -13 5 -23 12
-23 16 0 7 151 66 345 134 179 63 369 136 520 200 61 26 149 62 197 80 48 18
102 42 120 53 49 30 64 28 43 -5z m741 15 c4 -7 3 -8 -4 -4 -7 4 -12 1 -13 -6
0 -9 -2 -10 -5 -1 -3 7 -13 9 -22 6 -15 -4 -15 -3 -2 6 20 14 37 14 46 -1z
m107 -11 c3 -8 -1 -14 -8 -14 -7 0 -11 6 -8 14 3 7 6 13 8 13 2 0 5 -6 8 -13z
m82 -6 c-9 -15 -44 -20 -38 -5 2 7 12 10 20 7 12 -5 14 -3 8 7 -5 9 -4 11 4 6
6 -4 9 -11 6 -15z m-260 -9 c-3 -3 -11 0 -18 7 -9 10 -8 11 6 5 10 -3 15 -9
12 -12z m65 -12 c-19 -11 -29 -19 -22 -20 7 0 22 5 32 10 13 7 21 7 26 -2 4
-7 3 -8 -4 -4 -19 11 -14 -5 6 -21 11 -10 8 -10 -10 1 -26 15 -28 15 -28 -1 0
-14 -2 -15 -9 -4 -6 9 -18 12 -37 7 -16 -4 -27 -6 -24 -3 18 17 85 57 94 57 6
-1 -5 -9 -24 -20z m-50 -6 c0 -8 -19 -13 -24 -6 -3 5 1 9 9 9 8 0 15 -2 15 -3z
m-191 -31 c2 -2 -3 -3 -11 -3 -9 0 -19 7 -22 16 -6 15 -4 15 11 3 10 -7 20
-15 22 -16z m357 -2 c-4 -5 0 -12 6 -14 8 -3 6 -6 -4 -6 -18 -1 -24 10 -11 22
9 10 15 8 9 -2z m-146 -11 c-12 -8 -10 -10 9 -10 13 0 22 -3 18 -6 -3 -3 -20
-3 -38 1 -23 5 -28 10 -18 16 8 5 21 9 29 9 13 0 13 -1 0 -10z m125 -21 c11
-16 1 -19 -13 -3 -7 8 -8 14 -3 14 5 0 13 -5 16 -11z m-145 -7 c0 -3 -8 -11
-17 -18 -15 -11 -15 -15 -5 -22 11 -7 10 -10 -3 -15 -10 -5 -14 -3 -9 5 5 8 0
9 -17 5 -23 -6 -23 -5 4 14 15 12 25 24 22 28 -2 4 2 8 10 8 8 0 15 -2 15 -5z
m210 -6 c0 -2 -7 -7 -16 -10 -8 -3 -12 -2 -9 4 6 10 25 14 25 6z m-415 -32 c9
-15 11 -23 5 -19 -8 5 -18 2 -24 -7 -6 -9 -20 -18 -31 -20 -16 -3 -15 -5 7
-10 15 -3 25 -1 22 3 -3 5 0 9 6 9 6 0 8 5 4 12 -4 7 -3 8 5 4 6 -4 11 -13 10
-19 -3 -28 2 -39 16 -34 8 4 17 2 20 -4 4 -5 3 -9 -2 -8 -20 3 -34 -2 -28 -10
3 -6 14 -8 25 -6 25 5 68 -29 51 -39 -7 -4 -10 -2 -9 5 2 6 -3 14 -11 17 -9 3
-11 0 -6 -8 5 -8 4 -11 -3 -6 -6 3 -15 -2 -21 -11 -6 -10 -11 -13 -11 -6 0 6
5 15 10 18 6 4 8 11 4 16 -9 15 -33 -9 -29 -29 2 -9 4 -23 4 -29 1 -7 6 -13
12 -13 5 0 8 4 5 9 -4 5 3 7 14 4 12 -3 20 0 20 8 0 7 3 9 6 6 4 -3 16 -1 28
5 14 7 18 7 11 0 -5 -6 -30 -19 -55 -30 l-46 -20 -2 22 c0 11 -9 26 -18 33
-11 8 -13 13 -5 13 7 0 9 5 6 11 -4 6 -14 7 -24 4 -9 -4 -22 -8 -30 -9 -19 -4
-23 -33 -4 -40 9 -4 11 -2 7 6 -4 7 -3 8 5 4 6 -4 11 -13 10 -19 -3 -27 2 -37
19 -36 10 0 12 3 5 6 -7 2 -13 12 -12 21 0 11 2 12 6 4 2 -6 8 -10 13 -7 5 3
7 -3 6 -12 -2 -9 -8 -19 -14 -21 -7 -2 -9 -9 -5 -15 3 -7 3 -9 -2 -5 -4 4 -16
3 -26 -3 -13 -6 -19 -6 -19 1 0 5 4 10 9 10 14 0 7 43 -8 48 -9 3 -11 0 -6 -8
5 -8 4 -11 -3 -6 -6 4 -8 14 -5 23 5 12 3 14 -7 8 -10 -6 -11 -4 -4 6 9 14 10
19 13 40 0 6 8 9 16 5 8 -3 15 -1 15 5 0 6 4 8 8 5 4 -2 14 -1 22 5 12 7 11 9
-5 9 -11 0 -26 4 -34 9 -8 5 2 8 29 6 27 -1 38 1 31 8 -5 5 -21 10 -35 10 -30
0 -38 16 -20 42 9 13 14 14 14 5 0 -9 5 -8 14 5 8 11 12 25 9 32 -9 22 4 14
22 -13z m79 -20 c4 -10 2 -13 -7 -7 -6 4 -21 7 -32 5 l-20 -2 20 9 c28 13 32
13 39 -5z m131 -16 c-2 -24 -19 -35 -30 -19 -4 7 1 8 12 4 15 -6 16 -4 5 9
-10 13 -10 17 0 21 7 3 13 6 14 6 0 1 0 -9 -1 -21z m109 14 c2 -4 -5 -9 -17
-9 -17 -2 -19 0 -7 7 18 12 18 12 24 2z m-965 -28 c-79 -87 -380 -226 -679
-315 -61 -18 -66 -18 -77 -2 -8 10 -13 12 -13 4 0 -7 -4 -9 -10 -6 -5 3 -10 1
-10 -5 0 -6 -4 -9 -10 -5 -5 3 -2 14 7 25 9 10 20 17 25 14 4 -3 8 -1 8 5 0 5
30 19 67 32 37 12 81 30 97 40 17 10 67 32 111 50 44 17 94 38 110 47 17 9 77
30 135 48 129 40 214 70 237 83 28 16 28 13 2 -15z m798 19 c-9 -9 32 -52 47
-49 6 2 8 1 4 -1 -20 -11 -5 -21 18 -13 34 13 44 12 19 -2 -29 -18 -46 -18
-52 -2 -3 8 -10 11 -16 7 -5 -3 -7 -1 -4 4 8 13 -27 45 -38 36 -5 -5 -3 0 4
10 7 9 16 17 19 17 3 0 2 -3 -1 -7z m119 -12 c-4 -5 -15 -9 -26 -8 -10 1 -16
5 -13 10 3 4 11 6 19 3 8 -3 14 0 14 6 0 6 3 9 6 5 3 -3 3 -10 0 -16z m-172
-11 c8 -8 7 -10 -6 -5 -18 7 -23 -3 -18 -35 1 -8 -8 -3 -20 13 -12 15 -25 25
-29 23 -4 -3 -8 1 -8 9 0 16 63 13 81 -5z m51 -31 c-4 -5 -12 -9 -18 -8 -9 0
-8 2 1 6 6 2 9 10 6 15 -4 7 -2 8 5 4 6 -4 9 -12 6 -17z m-37 -24 c-3 -30 -11
-23 -13 9 0 14 3 22 7 20 4 -3 7 -16 6 -29z m-388 1 c0 -2 3 -11 6 -20 4 -11
0 -16 -13 -16 -25 0 -33 8 -26 26 4 12 33 21 33 10z m-1940 -54 c0 -13 -12
-22 -22 -16 -10 6 -1 24 13 24 5 0 9 -4 9 -8z m2092 -30 c-4 -11 -1 -13 7 -7
10 6 11 3 2 -14 -10 -17 -9 -21 4 -21 9 0 13 4 10 10 -3 6 1 7 9 4 19 -7 19
-9 6 -34 -5 -10 -23 -23 -40 -29 -22 -7 -29 -7 -24 1 4 6 1 9 -7 6 -8 -3 -13
-15 -13 -27 1 -21 1 -21 -17 -5 -22 20 -25 36 -6 28 8 -3 20 3 28 12 10 13 11
16 1 10 -27 -16 -69 -17 -75 -1 -4 8 -3 15 1 16 4 0 17 2 29 5 12 2 25 -1 28
-6 3 -5 12 -7 20 -3 9 3 15 -1 15 -11 0 -9 4 -16 8 -16 4 0 8 9 8 20 0 18 -14
25 -38 21 -5 0 -7 2 -7 7 3 17 -2 26 -9 16 -5 -9 -10 -8 -20 2 -10 11 -5 13
30 9 24 -3 37 -2 31 1 -7 3 -13 12 -13 19 0 17 23 25 32 12 3 -6 4 -17 0 -25z
m-192 -32 c-9 -6 -9 -9 1 -13 10 -4 9 -6 -3 -6 -10 -1 -18 -6 -18 -13 0 -6 -2
-9 -5 -6 -9 9 17 58 28 51 5 -3 4 -9 -3 -13z m356 5 c-11 -8 -25 -15 -30 -15
-6 1 0 7 14 15 32 19 40 18 16 0z m-295 -12 c2 1 -2 -4 -10 -10 -8 -7 -19 -13
-25 -13 -5 0 -1 -7 10 -15 19 -15 19 -15 -1 -9 -15 5 -17 4 -9 -5 6 -7 20 -13
32 -14 11 0 19 -4 16 -8 -2 -4 2 -14 11 -22 13 -13 13 -16 0 -21 -8 -3 -14 -2
-14 2 4 22 -4 29 -32 29 -42 0 -49 17 -26 64 14 29 23 37 32 29 6 -5 14 -9 16
-7z m-1808 -10 c-3 -7 -9 -10 -14 -7 -14 8 -11 21 5 21 8 0 12 -6 9 -14z
m1668 -31 c7 10 9 10 9 0 0 -15 51 -5 62 12 6 8 8 7 8 -1 0 -6 -4 -14 -10 -18
-5 -3 -7 -12 -4 -19 3 -8 0 -17 -6 -21 -6 -4 -8 -15 -5 -25 8 -24 -33 -50 -46
-29 -6 10 -13 7 -28 -12 -11 -13 -20 -19 -21 -12 0 6 -3 20 -6 30 -5 16 -4 16
10 -1 9 -11 16 -16 16 -12 0 4 -9 19 -19 32 -11 14 -18 34 -16 44 2 11 -1 20
-7 20 -7 0 -3 6 7 14 16 12 21 11 33 -1 12 -12 16 -12 23 -1z m329 -12 c-8 -5
-19 -10 -25 -10 -5 0 -3 5 5 10 8 5 20 10 25 10 6 0 3 -5 -5 -10z m-401 -56
c-10 -12 -9 -13 7 -7 17 6 18 5 5 -11 -14 -16 -16 -17 -27 -1 -9 11 -14 13
-19 5 -6 -9 -10 -9 -16 1 -5 8 -9 9 -9 4 0 -6 -9 -11 -20 -11 -11 0 -19 5 -17
10 4 11 29 17 71 17 26 0 27 1 10 15 -18 14 -17 14 4 4 19 -9 21 -14 11 -26z
m-102 -30 c13 -13 17 -13 24 -2 7 10 9 10 9 -2 0 -13 1 -13 10 0 8 12 10 12
10 1 0 -11 3 -11 15 -1 12 10 15 9 15 -4 0 -10 -4 -14 -10 -11 -5 3 -10 2 -10
-4 0 -5 6 -12 13 -14 9 -4 9 -6 -1 -6 -7 -1 -15 6 -19 15 -5 13 -7 13 -14 2
-7 -10 -9 -10 -9 2 0 13 -1 13 -10 0 -6 -9 -10 -11 -10 -3 0 7 -7 10 -15 7
-12 -5 -13 -9 -4 -20 10 -12 8 -13 -7 -8 -18 5 -18 5 0 -10 11 -9 15 -16 9
-16 -19 0 -33 25 -23 40 5 8 7 23 4 33 -7 21 3 22 23 1z m-2829 -17 c-7 -7
-33 -21 -58 -31 -54 -21 -49 -14 11 18 51 27 66 31 47 13z m917 -58 c67 -8
159 -33 355 -99 146 -49 300 -97 342 -107 43 -10 78 -21 78 -26 0 -4 -28 -6
-62 -5 -35 1 -155 -1 -268 -6 -230 -10 -1446 2 -1433 14 4 4 42 17 83 30 41
12 161 52 266 90 201 72 298 97 417 110 107 11 124 11 222 -1z"/>
<path d="M6167 7159 c4 -13 8 -18 11 -10 2 7 -1 18 -6 23 -8 8 -9 4 -5 -13z"/>
<path d="M6150 7145 c0 -5 5 -17 10 -25 5 -8 10 -10 10 -5 0 6 -5 17 -10 25
-5 8 -10 11 -10 5z"/>
<path d="M6130 7099 c0 -8 7 -24 15 -35 19 -25 19 -14 0 22 -8 16 -15 22 -15
13z"/>
<path d="M6197 7081 c-4 -17 -3 -21 5 -13 5 5 8 16 6 23 -3 8 -7 3 -11 -10z"/>
<path d="M6066 7037 c3 -10 9 -15 12 -12 3 3 0 11 -7 18 -10 9 -11 8 -5 -6z"/>
<path d="M6206 7035 c-3 -8 -1 -15 4 -15 6 0 10 7 10 15 0 8 -2 15 -4 15 -2 0
-6 -7 -10 -15z"/>
<path d="M6020 7021 c0 -6 4 -13 10 -16 6 -3 7 1 4 9 -7 18 -14 21 -14 7z"/>
<path d="M6176 7013 c-6 -14 -5 -15 5 -6 7 7 10 15 7 18 -3 3 -9 -2 -12 -12z"/>
<path d="M6056 7007 c3 -10 9 -15 12 -12 3 3 0 11 -7 18 -10 9 -11 8 -5 -6z"/>
<path d="M5950 7001 c0 -6 4 -13 10 -16 6 -3 7 1 4 9 -7 18 -14 21 -14 7z"/>
<path d="M6006 6982 c-3 -5 1 -9 9 -9 8 0 12 4 9 9 -3 4 -7 8 -9 8 -2 0 -6 -4
-9 -8z"/>
<path d="M6042 6929 c6 -16 12 -28 14 -26 5 5 -13 57 -20 57 -3 0 0 -14 6 -31z"/>
<path d="M5965 6909 c-4 -11 -4 -23 -1 -26 3 -4 6 2 6 12 0 14 3 15 15 5 19
-16 20 -3 1 16 -13 12 -16 11 -21 -7z"/>
<path d="M6163 6867 c0 -8 6 -14 14 -14 9 0 10 4 2 14 -6 7 -12 13 -14 13 -1
0 -2 -6 -2 -13z"/>
<path d="M6150 6760 c-6 -11 -8 -20 -6 -20 3 0 10 9 16 20 6 11 8 20 6 20 -3
0 -10 -9 -16 -20z"/>
<path d="M8495 6940 c10 -11 20 -20 23 -20 3 0 -3 9 -13 20 -10 11 -20 20 -23
20 -3 0 3 -9 13 -20z"/>
<path d="M8386 6942 c-3 -5 1 -9 9 -9 8 0 12 4 9 9 -3 4 -7 8 -9 8 -2 0 -6 -4
-9 -8z"/>
<path d="M8424 6929 c-4 -7 -3 -9 4 -5 5 3 13 0 15 -6 4 -9 6 -10 6 -1 1 17
-16 25 -25 12z"/>
<path d="M8486 6917 c3 -10 9 -15 12 -12 3 3 0 11 -7 18 -10 9 -11 8 -5 -6z"/>
<path d="M8413 6875 c0 -8 4 -12 9 -9 5 3 6 10 3 15 -9 13 -12 11 -12 -6z"/>
<path d="M8382 6830 c0 -14 2 -19 5 -12 2 6 2 18 0 25 -3 6 -5 1 -5 -13z"/>
<path d="M8420 6801 c0 -7 -4 -9 -10 -6 -5 3 -7 0 -5 -7 4 -9 -2 -14 -15 -14
-14 0 -19 5 -15 16 4 11 2 11 -8 -2 -11 -14 -16 -15 -27 -5 -9 9 -9 7 1 -10 8
-13 16 -18 20 -12 4 7 9 4 13 -6 3 -9 10 -14 15 -10 5 3 12 1 16 -5 4 -6 11
-7 17 -4 7 5 9 1 5 -9 -4 -11 0 -15 14 -14 10 1 19 7 19 14 0 7 5 13 10 13 7
0 7 -6 0 -19 -5 -11 -10 -23 -10 -28 1 -4 8 5 16 20 17 31 14 40 -15 42 -13 1
-17 -3 -13 -13 3 -10 1 -13 -6 -8 -14 9 -16 33 -3 38 5 2 3 12 -5 22 -8 11
-14 14 -14 7z m2 -41 c-6 -16 -11 -19 -16 -12 -4 7 -12 10 -17 7 -5 -4 -9 -1
-9 5 0 7 7 9 15 6 9 -3 18 1 22 10 3 8 7 13 9 11 3 -2 1 -15 -4 -27z"/>
<path d="M8320 6731 c0 -7 -4 -9 -10 -6 -6 3 -7 -1 -3 -10 5 -14 8 -14 15 -3
7 9 8 7 5 -10 -3 -12 -1 -20 4 -16 5 3 9 1 9 -5 0 -5 -8 -12 -17 -14 -10 -3
-3 -5 15 -6 24 -1 32 3 32 17 0 14 2 15 10 2 7 -11 10 -11 10 -2 0 7 4 11 9 8
5 -3 7 -16 5 -29 -4 -20 -4 -21 5 -2 7 14 10 15 10 5 0 -8 -4 -22 -9 -30 -5
-8 -10 -10 -10 -3 0 6 -8 9 -19 6 -11 -3 -17 -11 -15 -18 8 -21 -22 -24 -39
-4 -14 16 -15 19 -2 19 8 0 15 -6 15 -12 0 -7 5 -5 11 5 5 9 17 17 24 17 8 0
15 4 15 10 0 11 -32 1 -42 -14 -5 -7 -8 -6 -8 3 0 10 -6 9 -26 -4 -26 -17 -27
-17 -21 4 3 11 1 21 -4 21 -5 0 -9 8 -10 18 0 10 -3 12 -6 4 -2 -6 -9 -10 -13
-7 -5 3 -12 1 -15 -5 -4 -6 -3 -10 2 -9 26 5 35 -3 31 -26 -3 -13 -1 -23 5
-22 5 1 12 -4 15 -12 3 -9 0 -11 -8 -6 -9 5 -11 4 -6 -4 4 -6 12 -9 17 -6 5 4
9 1 9 -6 0 -8 4 -8 15 1 9 8 15 9 15 2 0 -6 -4 -13 -10 -17 -5 -3 -7 -12 -3
-20 3 -8 0 -15 -6 -15 -6 0 -11 6 -11 14 0 8 -4 17 -9 20 -5 4 -7 -3 -4 -14 7
-25 19 -34 36 -23 6 4 15 8 19 8 12 0 22 15 10 15 -7 0 -12 5 -12 11 0 5 4 8
9 4 5 -3 12 -1 16 5 4 6 11 8 16 5 5 -3 6 0 3 8 -3 8 0 18 7 23 7 4 15 2 17
-4 2 -7 8 -12 13 -12 6 0 8 4 5 9 -7 10 18 34 26 25 3 -2 8 1 11 9 4 10 -2 13
-20 11 -26 -3 -26 0 -8 51 4 11 3 16 -2 10 -4 -5 -16 -11 -26 -12 -13 -1 -17
4 -13 15 5 14 4 14 -8 -1 -10 -14 -15 -15 -19 -5 -4 11 -6 11 -6 0 -1 -7 -12
-1 -26 14 -14 15 -25 21 -25 15z m40 -56 c0 -5 -5 -3 -10 5 -5 8 -10 20 -10
25 0 6 5 3 10 -5 5 -8 10 -19 10 -25z m70 5 c0 -5 -2 -10 -4 -10 -3 0 -8 5
-11 10 -3 6 -1 10 4 10 6 0 11 -4 11 -10z m-110 -75 c7 -9 8 -15 2 -15 -5 0
-12 7 -16 15 -3 8 -4 15 -2 15 2 0 9 -7 16 -15z m64 -9 c-3 -9 -12 -16 -20
-16 -11 0 -10 4 4 18 20 22 25 21 16 -2z"/>
<path d="M8231 6573 c0 -11 3 -13 6 -5 2 6 10 9 15 6 7 -4 8 -2 4 4 -11 18
-26 14 -25 -5z"/>
<path d="M8257 6544 c5 -13 3 -15 -8 -9 -8 4 -5 -1 6 -12 11 -11 22 -16 23
-11 2 4 7 6 12 3 4 -3 6 5 2 17 -5 21 -6 21 -13 2 -6 -16 -8 -16 -8 -2 -1 9
-5 20 -11 23 -6 4 -7 -1 -3 -11z"/>
<path d="M8210 6520 c-9 -21 -9 -34 -2 -43 6 -6 10 -16 10 -20 0 -5 4 -12 8
-15 4 -4 4 -1 0 6 -5 9 1 11 28 7 27 -5 40 -1 55 14 22 22 27 41 12 41 -5 0
-16 -6 -23 -13 -29 -29 -52 -36 -72 -21 -17 12 -18 17 -7 40 6 15 10 28 8 31
-2 2 -10 -10 -17 -27z m104 -35 c-4 -8 -11 -15 -16 -15 -6 0 -5 6 2 15 7 8 14
15 16 15 2 0 1 -7 -2 -15z"/>
<path d="M8370 6521 c0 -6 4 -13 10 -16 6 -3 7 1 4 9 -7 18 -14 21 -14 7z"/>
<path d="M8196 6436 c3 -9 13 -16 22 -16 8 0 13 1 11 3 -2 1 -12 9 -22 16 -15
12 -17 12 -11 -3z"/>
<path d="M8176 6413 c-6 -14 -5 -15 5 -6 7 7 10 15 7 18 -3 3 -9 -2 -12 -12z"/>
<path d="M8146 6406 c6 -15 4 -17 -6 -11 -9 6 -11 4 -5 -4 5 -9 10 -10 18 -2
8 8 7 14 -2 24 -10 10 -11 8 -5 -7z"/>
<path d="M8194 6399 c-4 -7 1 -18 11 -26 11 -7 13 -13 6 -13 -7 0 -10 -4 -7
-9 4 -5 1 -11 -6 -13 -7 -3 -9 -12 -4 -23 10 -26 26 -7 32 37 4 38 -17 70 -32
47z"/>
<path d="M8160 6369 c-7 -11 -10 -23 -7 -25 2 -2 9 7 15 21 14 30 7 33 -8 4z"/>
<path d="M8126 6367 c3 -10 9 -15 12 -12 3 3 0 11 -7 18 -10 9 -11 8 -5 -6z"/>
<path d="M8100 6320 c-6 -12 -9 -24 -6 -28 3 -3 6 1 6 9 0 11 2 11 10 -1 13
-20 13 -43 0 -35 -5 3 -10 1 -10 -5 0 -7 6 -10 14 -7 8 3 17 -1 20 -10 4 -11
2 -14 -9 -9 -26 10 -16 -2 14 -17 16 -8 34 -11 41 -7 8 5 8 9 2 11 -6 2 -13
18 -17 34 -4 18 -3 25 2 18 6 -8 9 -1 9 22 0 19 -3 30 -7 24 -4 -8 -8 -7 -12
2 -4 12 -6 12 -6 0 -1 -11 -5 -10 -20 3 -19 17 -20 17 -31 -4z m52 -24 c3 11
4 0 4 -23 l-1 -43 -22 43 c-27 52 -30 72 -4 33 17 -25 20 -26 23 -10z"/>
<path d="M8060 6249 c0 -5 -4 -8 -9 -5 -5 3 -8 -2 -7 -12 0 -9 -5 -16 -12 -14
-10 2 -10 -2 -2 -18 6 -11 8 -26 4 -32 -4 -7 -3 -8 4 -4 7 4 12 1 12 -6 0 -8
5 -6 11 5 6 10 8 21 5 24 -3 4 -6 0 -6 -8 0 -11 -2 -11 -10 1 -13 20 -12 33 2
24 7 -4 8 -3 4 4 -4 7 -3 12 1 12 5 0 9 9 10 20 1 11 0 20 -3 20 -2 0 -4 -5
-4 -11z"/>
<path d="M7976 6163 c-6 -14 -5 -15 5 -6 7 7 10 15 7 18 -3 3 -9 -2 -12 -12z"/>
<path d="M8042 6129 c3 -8 -2 -20 -11 -27 -9 -8 -10 -11 -3 -7 7 4 12 0 12
-10 0 -9 -5 -13 -11 -10 -6 4 -17 -1 -25 -11 -15 -18 -15 -18 -10 1 6 20 6 20
-9 1 -8 -11 -15 -27 -14 -35 0 -14 1 -14 7 -1 8 18 42 23 42 6 1 -6 7 0 15 14
7 14 16 24 19 23 3 -2 16 -3 29 -2 21 0 21 1 2 8 -12 5 -23 4 -27 -3 -5 -6 -5
3 -2 20 4 20 2 34 -6 39 -8 5 -11 3 -8 -6z"/>
<path d="M7910 6035 c0 -2 6 -8 13 -14 10 -8 14 -7 14 2 0 8 -6 14 -14 14 -7
0 -13 -1 -13 -2z"/>
<path d="M7838 6023 c-22 -5 -22 -13 -3 -49 9 -18 15 -23 15 -12 0 9 -4 20
-10 23 -15 9 -12 28 3 22 8 -3 14 1 14 9 0 8 -1 13 -1 13 -1 -1 -9 -3 -18 -6z"/>
<path d="M7749 5913 c-13 -17 -13 -17 5 -3 18 14 18 13 11 -10 -4 -14 -4 -21
1 -15 5 5 13 12 17 16 4 3 2 11 -6 18 -11 9 -17 7 -28 -6z"/>
<path d="M7651 5894 c0 -11 3 -14 6 -6 3 7 2 16 -1 19 -3 4 -6 -2 -5 -13z"/>
<path d="M7714 5888 c-4 -6 -3 -8 4 -4 6 3 13 2 17 -4 6 -9 -8 -14 -28 -11 -5
1 -5 -8 -2 -20 5 -14 4 -19 -4 -15 -7 5 -9 1 -5 -9 5 -11 2 -14 -12 -9 -16 5
-16 4 -4 -5 11 -8 18 -6 29 7 12 16 13 15 8 -6 -3 -13 -1 -20 5 -16 5 3 6 20
3 37 -5 24 -3 28 4 17 13 -19 34 0 26 23 -8 20 -32 29 -41 15z"/>
<path d="M5617 5866 c-7 -17 16 -39 44 -43 21 -3 24 9 9 38 -12 22 -45 25 -53
5z"/>
<path d="M7650 5855 c-7 -9 -10 -18 -6 -22 3 -3 6 -1 6 7 0 10 4 10 18 -1 15
-12 16 -12 5 2 -7 9 -10 19 -6 22 3 4 4 7 1 7 -3 0 -11 -7 -18 -15z"/>
<path d="M5830 5853 c0 -4 5 -15 10 -23 8 -13 10 -13 10 2 0 9 -4 20 -10 23
-5 3 -10 3 -10 -2z"/>
<path d="M7530 5846 c0 -2 8 -10 18 -17 15 -13 16 -12 3 4 -13 16 -21 21 -21
13z"/>
<path d="M7576 5835 c-3 -9 -2 -13 3 -10 6 3 14 -3 20 -12 6 -10 10 -13 10 -8
0 6 -6 18 -13 28 -12 16 -14 16 -20 2z"/>
<path d="M7491 5824 c0 -11 3 -14 6 -6 3 7 2 16 -1 19 -3 4 -6 -2 -5 -13z"/>
<path d="M7619 5821 c6 -10 7 -22 3 -26 -4 -5 -1 -5 6 -1 9 5 9 12 2 27 -6 10
-13 19 -16 19 -2 0 0 -8 5 -19z"/>
<path d="M7650 5812 c0 -12 20 -38 21 -27 0 6 4 1 9 -10 6 -14 9 -15 9 -5 1 9
-8 23 -19 33 -11 9 -20 13 -20 9z"/>
<path d="M5475 5789 c-7 -10 11 -28 48 -50 21 -12 21 -6 2 31 -16 30 -38 39
-50 19z"/>
<path d="M7460 5786 c0 -2 8 -10 18 -17 15 -13 16 -12 3 4 -13 16 -21 21 -21
13z"/>
<path d="M7500 5770 c6 -11 12 -20 14 -20 2 0 2 9 -1 20 -3 11 -9 20 -15 20
-5 0 -4 -9 2 -20z"/>
<path d="M7563 5775 c-9 -10 -8 -14 8 -18 20 -5 24 0 11 19 -5 9 -10 8 -19 -1z"/>
<path d="M7623 5780 c-27 -11 -30 -25 -7 -34 14 -5 15 -4 4 9 -10 11 -10 15 0
15 6 0 14 -9 17 -20 3 -11 10 -20 16 -20 6 0 7 3 4 7 -4 3 -2 12 5 20 9 11 8
13 -3 11 -8 -2 -13 3 -11 10 1 6 1 12 0 11 -2 0 -13 -4 -25 -9z"/>
<path d="M7537 5744 c4 -12 3 -15 -5 -10 -8 5 -10 2 -6 -8 3 -9 9 -16 13 -16
10 0 11 39 0 45 -5 4 -6 -2 -2 -11z"/>
<path d="M7562 5724 c-1 -13 0 -24 2 -24 7 0 14 40 7 44 -4 3 -8 -6 -9 -20z"/>
<path d="M7400 5731 c0 -6 4 -13 10 -16 6 -3 7 1 4 9 -7 18 -14 21 -14 7z"/>
<path d="M7504 5718 c22 -31 22 -59 0 -32 -8 10 -13 13 -9 7 6 -12 -1 -15 -22
-12 -5 1 -7 4 -6 9 2 9 -50 6 -65 -4 -6 -3 -15 2 -21 11 -6 10 -11 13 -11 6 0
-6 4 -14 10 -18 5 -3 7 -12 4 -20 -4 -8 -11 -12 -18 -8 -7 4 -7 1 1 -9 7 -8
11 -17 8 -20 -3 -2 2 -5 10 -5 8 0 15 4 15 9 0 4 -5 8 -10 8 -7 0 -7 8 1 22
11 21 12 21 26 2 8 -10 26 -20 40 -21 26 -2 26 -2 5 13 -12 8 -22 20 -22 26 0
6 6 6 15 -2 23 -19 75 -21 75 -3 0 9 5 11 13 7 6 -5 -1 6 -18 24 -35 37 -42
41 -21 10z m-60 -68 c-6 -5 -24 21 -24 34 0 6 6 1 14 -10 8 -10 12 -21 10 -24z"/>
<path d="M7270 5719 c0 -5 -4 -8 -9 -4 -5 3 -12 1 -15 -4 -4 -5 2 -8 11 -7 15
3 33 26 19 26 -3 0 -6 -5 -6 -11z"/>
<path d="M7470 5720 c0 -5 5 -10 11 -10 5 0 7 5 4 10 -3 6 -8 10 -11 10 -2 0
-4 -4 -4 -10z"/>
<path d="M5192 5703 c-14 -27 -3 -43 28 -43 16 0 30 6 33 13 7 20 -12 47 -33
47 -11 0 -23 -8 -28 -17z"/>
<path d="M5367 5643 c-7 -43 -6 -46 17 -37 16 6 21 30 10 58 -10 27 -21 18
-27 -21z"/>
<path d="M7490 5655 c0 -5 5 -17 10 -25 5 -8 10 -10 10 -5 0 6 -5 17 -10 25
-5 8 -10 11 -10 5z"/>
<path d="M5014 5615 c-8 -20 2 -45 19 -45 24 0 51 26 44 44 -8 20 -56 21 -63
1z"/>
<path d="M7435 5610 c3 -5 -8 -7 -25 -5 -28 3 -30 2 -19 -13 21 -27 23 -28 16
-9 -6 16 8 25 15 9 2 -4 13 -3 26 4 23 11 23 12 3 17 -12 3 -19 1 -16 -3z"/>
<path d="M7345 5600 c-6 -10 -5 -11 15 -14 6 0 15 -8 20 -16 5 -8 10 -10 10
-5 -1 12 -25 45 -33 45 -3 0 -9 -4 -12 -10z"/>
<path d="M7274 5588 c-3 -4 0 -16 5 -25 6 -11 11 -13 11 -5 0 7 4 11 8 8 4 -2
8 3 8 13 0 18 -23 25 -32 9z"/>
<path d="M5180 5562 c0 -10 5 -23 12 -30 16 -16 48 3 48 28 0 16 -7 20 -30 20
-22 0 -30 -5 -30 -18z"/>
<path d="M7214 5556 c1 -8 5 -18 8 -22 4 -3 5 1 4 10 -1 8 -5 18 -8 22 -4 3
-5 -1 -4 -10z"/>
<path d="M4839 5544 c-27 -33 24 -70 55 -39 12 12 13 21 6 36 -13 23 -43 25
-61 3z"/>
<path d="M7015 5552 c4 -4 12 -7 18 -7 7 0 11 -12 10 -29 -3 -32 5 -30 12 2 2
12 -2 25 -8 29 -16 10 -41 13 -32 5z"/>
<path d="M7328 5543 c7 -3 16 -2 19 1 4 3 -2 6 -13 5 -11 0 -14 -3 -6 -6z"/>
<path d="M7111 5528 c-1 -12 -8 -16 -22 -13 -12 3 -19 2 -16 -1 3 -3 7 -4 10
-2 2 2 10 -2 18 -9 11 -9 19 -8 33 3 16 11 17 14 4 14 -9 0 -19 6 -21 13 -3 7
-6 5 -6 -5z"/>
<path d="M7156 5528 c4 -6 -1 -17 -10 -24 -11 -8 -13 -14 -7 -19 6 -3 11 0 11
7 0 9 3 9 10 -2 8 -13 10 -12 10 3 0 9 5 17 11 17 17 0 5 23 -14 26 -10 1 -14
-2 -11 -8z"/>
<path d="M5034 5485 c-4 -9 -2 -21 3 -26 14 -14 45 1 41 20 -4 22 -37 26 -44
6z"/>
<path d="M4653 5464 c-8 -20 21 -49 41 -41 23 9 32 37 15 48 -22 14 -49 11
-56 -7z"/>
<path d="M7033 5472 c-8 -5 -7 -11 2 -19 10 -10 14 -9 19 2 6 17 -5 26 -21 17z"/>
<path d="M7110 5469 c0 -5 5 -7 10 -4 6 3 10 8 10 11 0 2 -4 4 -10 4 -5 0 -10
-5 -10 -11z"/>
<path d="M2403 5463 c-19 -7 -16 -27 7 -48 16 -15 22 -15 35 -5 36 30 4 72
-42 53z"/>
<path d="M2212 5453 c-22 -9 -35 -43 -21 -59 19 -23 58 -17 71 11 17 38 -10
64 -50 48z"/>
<path d="M1790 5406 c0 -23 23 -56 39 -56 4 0 16 9 27 21 24 27 9 53 -35 57
-27 3 -31 0 -31 -22z"/>
<path d="M7045 5419 c-4 -6 -5 -12 -2 -15 2 -3 7 2 10 11 7 17 1 20 -8 4z"/>
<path d="M4872 5408 c5 -15 28 -23 28 -10 0 5 -7 13 -16 16 -10 4 -14 1 -12
-6z"/>
<path d="M6928 5413 c7 -3 16 -2 19 1 4 3 -2 6 -13 5 -11 0 -14 -3 -6 -6z"/>
<path d="M2494 5359 c-18 -20 -18 -21 6 -40 14 -10 32 -18 40 -16 22 3 25 48
4 64 -24 17 -28 17 -50 -8z"/>
<path d="M2686 5373 c-12 -12 -6 -51 9 -57 32 -12 67 23 42 42 -18 14 -44 21
-51 15z"/>
<path d="M6846 5372 c-3 -5 1 -9 9 -9 8 0 12 4 9 9 -3 4 -7 8 -9 8 -2 0 -6 -4
-9 -8z"/>
<path d="M6960 5365 c-14 -8 -20 -14 -14 -15 5 0 19 7 30 15 24 18 16 19 -16
0z"/>
<path d="M2295 5349 c-9 -27 24 -63 48 -53 26 9 32 45 11 61 -26 19 -52 16
-59 -8z"/>
<path d="M4415 5340 c-19 -21 -13 -49 12 -57 17 -6 44 28 41 51 -4 28 -30 31
-53 6z"/>
<path d="M1902 5321 c-13 -37 -2 -53 34 -49 38 4 45 39 12 62 -30 22 -34 21
-46 -13z"/>
<path d="M2095 5323 c-11 -47 44 -71 69 -30 9 15 7 22 -13 38 -32 26 -48 24
-56 -8z"/>
<path d="M6760 5345 c0 -7 30 -13 34 -7 3 4 -4 9 -15 9 -10 1 -19 0 -19 -2z"/>
<path d="M6835 5340 c-4 -6 -12 -7 -18 -4 -7 4 -8 3 -4 -1 11 -13 38 -15 30
-3 -4 7 2 9 15 6 12 -4 20 -2 16 3 -7 12 -31 11 -39 -1z"/>
<path d="M1700 5315 c-15 -18 -10 -45 12 -59 14 -8 22 -6 39 11 l21 21 -21 21
c-25 25 -34 26 -51 6z"/>
<path d="M6848 5303 c7 -3 16 -2 19 1 4 3 -2 6 -13 5 -11 0 -14 -3 -6 -6z"/>
<path d="M6696 5292 c-3 -4 4 -9 15 -9 23 -2 25 3 4 10 -8 4 -16 3 -19 -1z"/>
<path d="M6742 5288 c3 -7 12 -14 22 -14 15 -2 15 -2 0 3 -14 4 -14 7 -3 14
11 7 10 9 -4 9 -11 0 -17 -6 -15 -12z"/>
<path d="M2404 5276 c-17 -45 25 -91 55 -61 18 18 9 39 -27 63 -19 13 -22 12
-28 -2z"/>
<path d="M2784 5275 c-8 -21 1 -42 25 -55 17 -9 23 -6 37 15 13 20 14 28 4 40
-16 19 -59 19 -66 0z"/>
<path d="M2590 5265 c-10 -12 -9 -20 4 -40 20 -30 42 -32 56 -4 9 16 8 25 -6
40 -21 23 -37 24 -54 4z"/>
<path d="M2004 5246 c-9 -23 -1 -48 18 -60 14 -8 22 -6 40 11 21 22 21 23 3
43 -21 23 -53 26 -61 6z"/>
<path d="M2198 5234 c-10 -21 -9 -27 3 -35 21 -13 45 -11 60 7 11 14 10 19
-10 35 -31 25 -39 24 -53 -7z"/>
<path d="M4270 5235 c0 -8 2 -15 4 -15 2 0 6 7 10 15 3 8 1 15 -4 15 -6 0 -10
-7 -10 -15z"/>
<path d="M1805 5224 c-19 -19 -16 -43 6 -57 24 -15 49 -1 49 27 0 34 -33 52
-55 30z"/>
<path d="M2312 5169 c-18 -28 -15 -47 9 -54 28 -9 64 22 47 42 -23 28 -43 33
-56 12z"/>
<path d="M2695 5161 c-15 -30 -15 -32 7 -40 54 -20 79 25 31 56 -20 14 -23 13
-38 -16z"/>
<path d="M4113 5179 c-14 -14 -18 -86 -7 -114 5 -13 8 -14 15 -3 12 19 11 71
-1 63 -13 -8 -13 8 1 22 6 6 9 18 7 28 -2 13 -5 14 -15 4z"/>
<path d="M4280 5159 c0 -27 3 -30 23 -23 32 9 32 12 12 34 -25 28 -35 25 -35
-11z"/>
<path d="M2502 5168 c-31 -31 2 -67 48 -53 26 8 25 30 -2 49 -27 19 -31 19
-46 4z"/>
<path d="M2894 5165 c-8 -21 14 -45 41 -45 27 0 40 27 24 46 -15 19 -58 18
-65 -1z"/>
<path d="M2120 5145 c-17 -20 -8 -49 16 -53 30 -4 48 21 34 47 -13 25 -33 27
-50 6z"/>
<path d="M1920 5131 c-17 -33 -12 -51 14 -51 29 0 44 33 26 55 -17 20 -27 19
-40 -4z"/>
<path d="M3917 5123 c-22 -21 2 -56 31 -46 20 7 15 53 -6 53 -10 0 -22 -3 -25
-7z"/>
<path d="M2420 5055 c-17 -45 16 -75 48 -43 18 18 14 34 -13 52 -24 16 -26 16
-35 -9z"/>
<path d="M2612 5068 c-16 -16 -15 -55 2 -61 17 -7 56 20 56 38 0 8 -9 19 -19
25 -24 13 -24 13 -39 -2z"/>
<path d="M2803 5064 c-9 -24 10 -49 38 -49 27 0 37 28 19 50 -17 20 -49 19
-57 -1z"/>
<path d="M3714 5035 c-10 -24 19 -49 45 -40 16 5 21 13 19 28 -4 28 -55 37
-64 12z"/>
<path d="M3910 4992 c0 -26 10 -33 31 -21 22 12 14 39 -12 39 -12 0 -19 -7
-19 -18z"/>
<path d="M3538 4979 c-10 -5 -18 -16 -18 -24 0 -18 37 -38 56 -31 17 7 18 38
2 54 -14 14 -18 14 -40 1z"/>
<path d="M3450 4826 c0 -21 20 -30 33 -17 9 9 8 14 -3 21 -21 14 -30 12 -30
-4z"/>
<path d="M8466 6373 c-4 -5 -16 -8 -27 -8 -10 0 -18 -4 -16 -10 2 -9 8 -9 46
-1 8 1 17 8 19 14 4 13 -11 16 -22 5z"/>
<path d="M8080 6000 c0 -5 5 -10 11 -10 5 0 7 5 4 10 -3 6 -8 10 -11 10 -2 0
-4 -4 -4 -10z"/>
<path d="M7964 5895 c-10 -8 -14 -15 -8 -15 5 0 19 7 30 15 10 8 14 15 8 15
-5 0 -19 -7 -30 -15z"/>
<path d="M8971 5134 c0 -11 3 -14 6 -6 3 7 2 16 -1 19 -3 4 -6 -2 -5 -13z"/>
<path d="M8961 5094 c0 -11 3 -14 6 -6 3 7 2 16 -1 19 -3 4 -6 -2 -5 -13z"/>
<path d="M8806 4873 c-6 -14 -5 -15 5 -6 7 7 10 15 7 18 -3 3 -9 -2 -12 -12z"/>
<path d="M8860 4881 c0 -6 4 -13 10 -16 6 -3 7 1 4 9 -7 18 -14 21 -14 7z"/>
<path d="M6686 4474 c-3 -9 -4 -19 -1 -22 3 -3 5 1 5 9 0 11 2 11 10 -1 5 -8
10 -10 10 -5 0 6 -4 16 -9 23 -6 11 -10 10 -15 -4z"/>
<path d="M6511 4451 c-7 -5 -9 -11 -5 -14 5 -3 15 1 22 9 14 16 5 18 -17 5z"/>
<path d="M6461 4404 c0 -11 3 -14 6 -6 3 7 2 16 -1 19 -3 4 -6 -2 -5 -13z"/>
<path d="M6350 4401 c0 -7 -5 -9 -12 -5 -7 5 -8 3 -3 -5 5 -9 10 -10 18 -2 6
6 8 14 4 18 -4 3 -7 1 -7 -6z"/>
<path d="M6542 4394 c2 -19 5 -20 30 -12 32 11 38 23 7 13 -14 -5 -25 -2 -30
6 -6 10 -8 8 -7 -7z"/>
<path d="M6207 4360 c-3 -10 1 -24 9 -31 8 -6 12 -15 9 -18 -2 -4 3 -8 11 -8
10 0 11 4 4 11 -15 15 -12 30 4 17 11 -9 16 -9 22 0 4 8 3 9 -5 5 -7 -4 -15 2
-20 16 -7 17 -10 19 -10 6 -1 -10 -5 -18 -10 -18 -5 0 -7 9 -4 20 3 11 3 20 0
20 -2 0 -7 -9 -10 -20z"/>
<path d="M6313 4339 c12 -21 23 -36 26 -34 2 3 -4 16 -13 30 -9 14 -15 29 -12
34 3 4 -1 8 -9 8 -10 0 -8 -10 8 -38z"/>
<path d="M6358 4373 c-5 -25 -4 -63 1 -63 4 0 7 16 7 35 0 32 -4 46 -8 28z"/>
<path d="M6390 4330 c-9 -6 -10 -10 -3 -10 6 0 15 5 18 10 8 12 4 12 -15 0z"/>
<path d="M6090 4319 c0 -5 -6 -7 -12 -3 -7 4 -9 3 -5 -1 13 -15 36 -14 30 1
-6 17 -13 18 -13 3z"/>
<path d="M5986 4301 c-3 -5 1 -14 8 -20 12 -10 13 -8 9 8 -6 23 -9 25 -17 12z"/>
<path d="M6200 4286 c0 -8 4 -17 9 -20 5 -4 7 3 4 14 -6 23 -13 26 -13 6z"/>
<path d="M6052 4258 c5 -35 15 -46 14 -14 -1 14 -5 29 -10 33 -4 4 -6 -4 -4
-19z"/>
<path d="M6083 4221 c0 -11 5 -18 9 -15 4 3 5 11 1 19 -7 21 -12 19 -10 -4z"/>
<path d="M5866 4217 c3 -10 9 -15 12 -12 3 3 0 11 -7 18 -10 9 -11 8 -5 -6z"/>
<path d="M6030 4226 c0 -2 8 -10 18 -17 15 -13 16 -12 3 4 -13 16 -21 21 -21
13z"/>
<path d="M5820 4209 c0 -5 5 -7 10 -4 6 3 10 8 10 11 0 2 -4 4 -10 4 -5 0 -10
-5 -10 -11z"/>
<path d="M6020 4199 c0 -5 -4 -7 -10 -4 -5 3 -10 -1 -10 -10 0 -13 4 -14 20
-5 11 6 18 15 15 21 -8 12 -15 12 -15 -2z"/>
<path d="M5890 4185 c0 -5 5 -17 10 -25 5 -8 10 -10 10 -5 0 6 -5 17 -10 25
-5 8 -10 11 -10 5z"/>
<path d="M5884 4124 c-18 -14 -18 -15 4 -4 12 6 22 13 22 15 0 8 -5 6 -26 -11z"/>
<path d="M5744 4116 c-11 -12 -16 -51 -5 -40 3 3 6 9 6 12 0 4 4 13 9 20 11
18 4 23 -10 8z"/>
<path d="M5824 4095 c-10 -8 -14 -14 -9 -14 6 0 19 6 29 14 11 8 15 15 10 15
-6 0 -19 -7 -30 -15z"/>
<path d="M5560 4079 c0 -5 -4 -7 -10 -4 -6 4 -7 -1 -3 -11 4 -11 8 -13 11 -6
2 7 8 10 13 7 5 -4 6 1 3 9 -7 18 -14 21 -14 5z"/>
<path d="M5611 4074 c0 -11 3 -14 6 -6 3 7 2 16 -1 19 -3 4 -6 -2 -5 -13z"/>
<path d="M5675 4020 c-3 -5 -2 -10 4 -10 5 0 13 5 16 10 3 6 2 10 -4 10 -5 0
-13 -4 -16 -10z"/>
<path d="M5260 3951 c0 -6 4 -12 8 -15 5 -3 9 1 9 9 0 8 -4 15 -9 15 -4 0 -8
-4 -8 -9z"/>
<path d="M5240 3939 c0 -5 -4 -7 -10 -4 -6 4 -7 -1 -3 -11 4 -11 8 -13 11 -6
2 7 8 10 13 7 5 -4 6 1 3 9 -7 18 -14 21 -14 5z"/>
<path d="M5182 3916 l-22 -12 21 -17 c13 -12 19 -13 18 -5 -1 7 -1 20 0 28 1
13 2 13 11 0 6 -9 10 -10 10 -3 0 19 -13 22 -38 9z"/>
<path d="M5031 3851 c-7 -5 -9 -11 -5 -14 5 -3 15 1 22 9 14 16 5 18 -17 5z"/>
<path d="M4933 3817 c-52 -21 -77 -46 -29 -27 17 6 26 5 30 -3 3 -9 5 -8 5 1
1 7 6 10 11 7 6 -3 10 -1 10 5 0 6 6 8 13 4 6 -4 8 -3 4 1 -4 5 3 15 15 22 36
20 -1 13 -59 -10z"/>
<path d="M5166 3817 c3 -10 9 -15 12 -12 3 3 0 11 -7 18 -10 9 -11 8 -5 -6z"/>
<path d="M5036 3787 c3 -10 9 -15 12 -12 3 3 0 11 -7 18 -10 9 -11 8 -5 -6z"/>
<path d="M4860 3781 c0 -7 -4 -10 -8 -7 -15 9 -31 -9 -22 -24 8 -12 10 -11 10
5 0 15 3 17 9 7 6 -11 10 -10 15 4 3 9 4 19 1 22 -3 3 -5 0 -5 -7z"/>
<path d="M4961 3764 c0 -11 3 -14 6 -6 3 7 2 16 -1 19 -3 4 -6 -2 -5 -13z"/>
<path d="M4790 3721 c0 -6 4 -13 10 -16 6 -3 7 1 4 9 -7 18 -14 21 -14 7z"/>
<path d="M4615 3689 c-4 -6 -5 -12 -2 -15 2 -3 7 2 10 11 7 17 1 20 -8 4z"/>
<path d="M4874 3674 c-19 -15 -19 -15 1 -6 11 5 27 12 35 15 13 5 13 6 -1 6
-8 1 -24 -6 -35 -15z"/>
<path d="M4534 3655 c-4 -9 -4 -19 0 -22 3 -4 6 2 6 13 0 16 2 17 10 4 6 -9
10 -10 10 -3 0 19 -20 26 -26 8z"/>
<path d="M4500 3651 c0 -6 4 -13 10 -16 6 -3 7 1 4 9 -7 18 -14 21 -14 7z"/>
<path d="M4475 3639 c-4 -6 -5 -12 -2 -15 2 -3 7 2 10 11 7 17 1 20 -8 4z"/>
<path d="M4576 3627 c3 -10 9 -15 12 -12 3 3 0 11 -7 18 -10 9 -11 8 -5 -6z"/>
<path d="M4390 3520 c-8 -5 -10 -10 -5 -10 6 0 17 5 25 10 8 5 11 10 5 10 -5
0 -17 -5 -25 -10z"/>
<path d="M3806 3478 c3 -4 9 -8 15 -8 5 0 9 4 9 8 0 5 -7 9 -15 9 -8 0 -12 -4
-9 -9z"/>
<path d="M1586 4603 c-6 -14 -5 -15 5 -6 7 7 10 15 7 18 -3 3 -9 -2 -12 -12z"/>
<path d="M1801 4574 c0 -11 3 -14 6 -6 3 7 2 16 -1 19 -3 4 -6 -2 -5 -13z"/>
<path d="M1821 4564 c0 -11 3 -14 6 -6 3 7 2 16 -1 19 -3 4 -6 -2 -5 -13z"/>
<path d="M1841 4564 c0 -11 3 -14 6 -6 3 7 2 16 -1 19 -3 4 -6 -2 -5 -13z"/>
<path d="M1878 4548 c-4 -22 -2 -26 14 -23 23 5 24 -12 1 -18 -17 -4 -17 -5 0
-6 18 -1 41 43 33 63 -2 6 -5 2 -5 -9 -1 -17 -3 -17 -11 -5 -8 12 -10 12 -11
-5 -1 -16 -2 -15 -8 5 l-7 25 -6 -27z"/>
<path d="M2001 4544 c0 -11 3 -14 6 -6 3 7 2 16 -1 19 -3 4 -6 -2 -5 -13z"/>
<path d="M2616 4518 l4 -33 -14 30 c-18 37 -20 29 -5 -14 9 -24 14 -29 20 -19
11 17 11 55 0 62 -5 4 -7 -8 -5 -26z"/>
<path d="M2641 4524 c0 -11 3 -14 6 -6 3 7 2 16 -1 19 -3 4 -6 -2 -5 -13z"/>
<path d="M2696 4525 c-3 -9 -6 -22 -5 -28 0 -7 5 -1 10 12 5 13 8 26 5 28 -2
2 -6 -3 -10 -12z"/>
<path d="M2715 4520 c-4 -12 -5 -24 -2 -27 3 -2 8 5 12 17 4 12 5 24 2 27 -3
2 -8 -5 -12 -17z"/>
<path d="M2741 4533 c-1 -6 -4 -20 -7 -30 -5 -17 -5 -17 6 0 6 10 9 23 6 30
-3 9 -5 9 -5 0z"/>
<path d="M1811 4514 c0 -11 3 -14 6 -6 3 7 2 16 -1 19 -3 4 -6 -2 -5 -13z"/>
<path d="M2246 4513 c-6 -14 -5 -15 5 -6 7 7 10 15 7 18 -3 3 -9 -2 -12 -12z"/>
<path d="M2099 4498 c-3 -6 -7 -69 -4 -66 1 2 8 14 15 27 10 19 10 22 -1 16
-9 -6 -11 -3 -6 8 3 10 4 17 2 17 -3 0 -5 -1 -6 -2z"/>
<path d="M2787 4478 c19 -21 31 -25 14 -5 -6 8 -9 16 -6 19 3 2 -2 5 -10 5
-13 0 -13 -3 2 -19z"/>
<path d="M2151 4463 c-10 -26 -10 -27 4 -9 8 11 15 23 15 28 0 15 -7 8 -19
-19z"/>
<path d="M2241 4463 c-10 -26 -10 -27 4 -9 8 11 15 23 15 28 0 15 -7 8 -19
-19z"/>
<path d="M2402 4465 c-17 -37 -14 -45 4 -12 9 16 14 31 11 33 -2 2 -9 -7 -15
-21z"/>
<path d="M2763 4473 c4 -3 -1 -12 -11 -20 -9 -8 -12 -12 -5 -9 6 4 17 -2 23
-11 9 -15 10 -15 4 6 -5 18 -3 22 7 15 12 -6 12 -5 0 9 -7 9 -16 17 -19 17 -3
0 -2 -3 1 -7z"/>
<path d="M2576 4451 c-4 -6 -4 -11 1 -10 20 3 27 -2 13 -11 -13 -8 -13 -10 2
-10 12 0 15 -5 11 -17 -7 -17 -6 -17 11 0 10 9 22 14 28 11 7 -4 8 -2 4 5 -4
6 -12 9 -17 5 -5 -3 -18 5 -28 17 -12 16 -20 19 -25 10z"/>
<path d="M2689 4438 c-6 -13 -8 -20 -4 -16 5 4 15 2 24 -4 13 -10 14 -10 4 2
-16 18 -17 34 -1 24 7 -4 8 -3 4 4 -10 17 -14 15 -27 -10z"/>
<path d="M2857 4446 c-3 -8 2 -20 11 -27 14 -11 15 -11 5 0 -6 7 -9 20 -6 27
3 8 3 14 0 14 -3 0 -7 -6 -10 -14z"/>
<path d="M2206 4433 c-6 -14 -5 -15 5 -6 7 7 10 15 7 18 -3 3 -9 -2 -12 -12z"/>
<path d="M2506 4434 c-4 -11 -2 -12 13 -4 16 8 21 6 25 -8 4 -14 5 -14 3 2 -2
23 -33 30 -41 10z"/>
<path d="M2881 4445 c0 -5 3 -16 8 -23 7 -11 9 -10 14 3 4 9 3 14 -2 10 -5 -3
-12 1 -14 7 -3 7 -6 9 -6 3z"/>
<path d="M2751 4414 c0 -11 3 -14 6 -6 3 7 2 16 -1 19 -3 4 -6 -2 -5 -13z"/>
<path d="M2306 4404 c-3 -8 -11 -12 -17 -8 -8 5 -9 3 -5 -5 6 -9 13 -8 29 6
18 16 20 16 14 1 -4 -13 -1 -16 14 -13 14 3 19 0 16 -8 -10 -26 31 -15 42 11
l12 27 -21 -25 c-21 -26 -27 -21 -10 10 8 14 6 18 -6 16 -9 -1 -19 -8 -23 -15
-6 -10 -10 -9 -14 3 -8 20 -23 21 -31 0z"/>
<path d="M2512 4394 c-7 -14 -16 -23 -21 -19 -5 3 -13 0 -17 -6 -5 -8 -3 -9 6
-4 9 6 12 4 8 -7 -4 -8 0 -15 8 -15 7 0 11 4 8 8 -3 5 3 20 12 34 9 14 15 28
12 30 -3 3 -10 -6 -16 -21z"/>
<path d="M2935 4410 c-4 -6 -3 -10 2 -9 13 3 43 -12 43 -22 0 -6 -10 -5 -22 1
-21 10 -22 10 -5 -3 13 -11 15 -16 5 -19 -7 -3 -19 2 -26 11 -7 9 -11 11 -10
5 2 -7 -1 -12 -7 -13 -5 -1 -10 3 -10 9 0 5 -7 15 -15 22 -12 11 -12 11 -2 -4
8 -10 9 -19 3 -22 -5 -3 -11 -3 -14 1 -2 5 -2 2 0 -6 2 -9 -4 -12 -21 -9 -17
3 -23 1 -19 -8 5 -13 27 -9 52 10 12 9 13 8 8 -6 -4 -13 -2 -15 10 -11 13 5
14 3 4 -15 -7 -12 -8 -22 -4 -22 4 0 1 -5 -7 -10 -8 -5 -10 -10 -5 -11 48 -6
75 -5 75 2 0 4 9 7 20 6 14 -1 19 -6 15 -17 -4 -11 -1 -10 9 3 17 21 30 22 22
1 -5 -12 -2 -15 10 -10 12 5 15 2 10 -9 -5 -13 -1 -12 19 2 l24 18 -24 24
c-20 21 -26 22 -39 11 -13 -10 -16 -10 -16 1 0 11 -2 11 -10 -1 -9 -13 -10
-13 -10 0 0 9 -3 11 -8 5 -4 -5 -15 -17 -25 -24 -16 -13 -19 -13 -17 0 5 33 1
42 -14 29 -12 -9 -15 -8 -13 9 1 12 6 20 13 17 6 -2 23 4 38 13 25 17 25 18 9
33 -29 24 -41 29 -48 18z m5 -116 c-15 -18 -27 -18 -27 -1 0 7 9 14 19 14 16
2 17 -1 8 -13z m127 1 c8 -9 13 -19 10 -22 -6 -5 -37 21 -37 31 0 10 11 6 27
-9z"/>
<path d="M2456 4378 l-18 -33 21 25 c18 22 26 40 18 40 -1 0 -11 -15 -21 -32z"/>
<path d="M2410 4380 c-6 -11 -8 -20 -6 -20 3 0 10 9 16 20 6 11 8 20 6 20 -3
0 -10 -9 -16 -20z"/>
<path d="M2531 4382 c-7 -14 -6 -19 4 -19 7 0 11 7 7 15 -4 11 -1 13 8 7 9 -5
11 -4 6 3 -10 16 -14 15 -25 -6z"/>
<path d="M2634 4379 c0 -10 3 -16 7 -13 4 2 9 -1 11 -8 3 -7 7 -5 11 6 5 11 3
15 -5 10 -7 -5 -9 -2 -6 8 4 8 1 15 -6 15 -6 0 -12 -8 -12 -18z"/>
<path d="M2760 4380 c0 -5 -6 -9 -12 -7 -7 1 -14 -5 -14 -13 -1 -8 -2 -21 -3
-28 0 -7 -5 -11 -10 -7 -5 3 -13 0 -17 -6 -4 -7 -3 -9 4 -5 6 3 13 2 17 -4 10
-16 35 -12 35 6 0 14 3 14 18 3 14 -11 15 -11 5 1 -22 24 -14 34 10 14 l22
-19 -19 22 c-10 13 -23 20 -28 17 -6 -4 -7 2 -3 15 3 11 4 21 1 21 -3 0 -6 -4
-6 -10z m0 -42 c0 -19 -16 -5 -17 14 -2 18 0 20 7 8 5 -8 10 -18 10 -22z"/>
<path d="M2807 4348 c19 -21 31 -25 14 -5 -6 8 -9 16 -6 19 3 2 -2 5 -10 5
-13 0 -13 -3 2 -19z"/>
<path d="M2576 4345 c-9 -26 -7 -32 5 -12 6 10 9 21 6 23 -2 3 -7 -2 -11 -11z"/>
<path d="M2690 4341 c0 -7 -5 -9 -12 -5 -6 4 -8 3 -4 -4 3 -5 0 -13 -6 -15 -8
-4 -7 -6 3 -6 17 -1 34 27 24 37 -3 3 -5 0 -5 -7z"/>
<path d="M2965 4330 c3 -5 8 -10 11 -10 2 0 4 5 4 10 0 6 -5 10 -11 10 -5 0
-7 -4 -4 -10z"/>
<path d="M2815 4310 c-4 -6 1 -7 12 -3 15 6 16 4 5 -9 -10 -13 -10 -18 -1 -24
7 -4 9 -3 6 3 -4 6 0 16 7 22 11 10 17 8 25 -6 6 -10 11 -13 11 -6 0 22 -54
42 -65 23z"/>
<path d="M9020 4661 c0 -6 4 -13 10 -16 6 -3 7 1 4 9 -7 18 -14 21 -14 7z"/>
<path d="M8936 4576 c3 -8 13 -17 22 -21 13 -5 13 -2 -3 15 -21 24 -26 25 -19
6z"/>
<path d="M8887 4542 c-3 -4 1 -13 9 -19 7 -7 15 -9 17 -5 3 4 -1 13 -9 19 -7
7 -15 9 -17 5z"/>
<path d="M9351 4590 c0 -14 -16 -55 -34 -90 -35 -69 -49 -130 -22 -94 8 11 15
27 15 36 0 9 4 19 9 23 13 8 43 113 38 133 -3 10 -5 7 -6 -8z"/>
<path d="M8665 4400 c3 -5 8 -10 11 -10 2 0 4 5 4 10 0 6 -5 10 -11 10 -5 0
-7 -4 -4 -10z"/>
<path d="M8505 4320 c-3 -6 1 -7 9 -4 18 7 21 14 7 14 -6 0 -13 -4 -16 -10z"/>
<path d="M8418 4295 c2 -14 8 -27 12 -30 4 -2 5 7 2 20 -2 14 -8 27 -12 30 -4
2 -5 -7 -2 -20z"/>
<path d="M8294 4289 c-3 -6 -2 -15 3 -20 5 -5 9 -1 9 11 0 23 -2 24 -12 9z"/>
<path d="M8465 4280 c-18 -8 -18 -9 -2 -9 11 -1 15 -6 11 -13 -4 -7 -3 -8 5
-4 6 4 9 11 6 16 -3 4 1 11 7 13 7 3 9 5 3 6 -5 0 -19 -4 -30 -9z"/>
<path d="M8371 4256 c27 -26 36 -26 21 0 -5 10 -18 19 -27 20 -15 2 -14 -2 6
-20z"/>
<path d="M8336 4257 c3 -10 9 -15 12 -12 3 3 0 11 -7 18 -10 9 -11 8 -5 -6z"/>
<path d="M8373 4224 c4 -7 4 -15 -1 -18 -6 -3 -12 1 -16 9 -3 8 -11 15 -18 15
-10 0 -10 -2 1 -9 8 -5 10 -14 6 -21 -5 -8 -4 -11 3 -6 5 3 13 0 15 -6 4 -10
6 -10 6 0 1 6 6 12 12 12 5 0 7 -4 4 -10 -3 -5 0 -7 8 -4 10 3 14 -1 14 -12
-1 -9 4 -18 11 -20 7 -1 8 0 2 3 -5 2 -7 15 -4 28 3 13 0 26 -7 30 -8 5 -10 4
-5 -3 11 -18 -4 -14 -22 6 -10 10 -13 13 -9 6z"/>
<path d="M8307 4217 c-3 -8 1 -14 8 -14 7 0 11 6 8 14 -3 7 -6 13 -8 13 -2 0
-5 -6 -8 -13z"/>
<path d="M8280 4209 c0 -5 -4 -8 -9 -4 -5 3 -12 1 -15 -4 -4 -5 2 -8 11 -7 15
3 33 26 19 26 -3 0 -6 -5 -6 -11z"/>
<path d="M8306 4174 c-5 -14 -4 -15 9 -4 17 14 19 20 6 20 -5 0 -12 -7 -15
-16z"/>
<path d="M8459 4181 c11 -7 11 -9 0 -14 -8 -3 -2 -5 13 -4 21 1 24 4 16 14 -6
7 -18 13 -27 13 -13 0 -13 -2 -2 -9z"/>
<path d="M8245 4152 c-12 -9 -16 -44 -4 -36 5 3 9 11 9 19 0 7 6 16 13 18 6 3
8 6 2 6 -5 0 -14 -3 -20 -7z"/>
<path d="M8328 4153 c6 -2 9 -10 6 -15 -4 -7 -2 -8 4 -4 7 4 12 2 12 -5 0 -7
3 -9 6 -6 9 8 -15 37 -30 36 -7 0 -6 -2 2 -6z"/>
<path d="M8441 4135 c-1 -16 -3 -17 -11 -5 -7 12 -12 12 -22 2 -9 -9 -9 -15 1
-24 10 -11 11 -9 6 7 -7 20 -6 20 9 1 9 -11 16 -15 16 -10 0 5 8 10 19 10 11
0 17 -5 14 -13 -6 -14 6 -17 23 -5 7 5 3 15 -13 30 -20 20 -23 21 -24 5 0 -16
-1 -16 -9 2 l-9 20 0 -20z"/>
<path d="M8326 4112 c-3 -5 1 -9 9 -9 8 0 12 4 9 9 -3 4 -7 8 -9 8 -2 0 -6 -4
-9 -8z"/>
<path d="M8286 4075 c-4 -14 -11 -23 -16 -20 -6 3 -7 -1 -3 -10 5 -13 7 -14
14 -3 7 10 9 10 9 -2 1 -10 5 -8 13 6 7 12 18 19 25 16 9 -2 7 4 -4 17 -24 27
-30 27 -38 -4z m15 -12 c-12 -20 -14 -14 -5 12 4 9 9 14 11 11 3 -2 0 -13 -6
-23z"/>
<path d="M8206 4072 c-3 -5 1 -9 9 -9 8 0 15 4 15 9 0 4 -4 8 -9 8 -6 0 -12
-4 -15 -8z"/>
<path d="M8318 4038 c-4 -10 -3 -18 2 -18 4 0 7 -17 5 -37 -2 -20 0 -31 4 -24
5 7 11 12 15 12 18 -3 22 1 23 19 2 17 -2 20 -20 15 -17 -5 -19 -4 -7 4 9 6
10 11 3 11 -6 0 -13 8 -15 18 -3 16 -4 16 -10 0z"/>
<path d="M8100 4021 c-7 -15 -7 -22 2 -27 7 -4 10 -4 6 1 -4 4 -3 16 3 26 5
11 7 19 5 19 -3 0 -10 -9 -16 -19z"/>
<path d="M8360 4033 c0 -5 11 -8 24 -8 13 0 22 3 19 8 -2 4 -13 7 -24 7 -10 0
-19 -3 -19 -7z"/>
<path d="M8446 4031 c-3 -5 1 -14 9 -21 10 -9 15 -9 15 -1 0 6 -6 11 -12 11
-9 0 -8 4 2 10 9 6 10 10 3 10 -6 0 -14 -4 -17 -9z"/>
<path d="M8203 3997 c-3 -4 -2 -11 1 -14 3 -4 6 -2 6 4 0 5 7 10 15 10 18 0
20 -26 3 -28 -7 -1 -26 -2 -43 -1 -16 0 -22 -2 -12 -5 9 -2 17 -10 17 -16 0
-7 4 -6 10 3 8 12 10 12 10 1 0 -9 10 -3 25 13 14 15 25 21 25 14 0 -9 3 -9
10 2 8 13 10 12 10 -2 0 -10 -8 -18 -17 -19 -11 0 -13 -3 -5 -6 6 -2 12 -9 12
-14 0 -6 -5 -7 -12 -3 -7 4 -8 3 -4 -4 5 -9 14 -7 31 5 13 10 19 20 14 21 -5
2 -9 8 -9 13 0 6 4 8 9 4 5 -3 12 -1 16 5 3 5 -2 10 -12 10 -15 0 -16 2 -3 10
20 13 4 13 -21 0 -10 -6 -19 -7 -19 -2 0 11 -50 10 -57 -1z"/>
<path d="M8133 3975 c0 -8 4 -12 9 -9 5 3 6 10 3 15 -9 13 -12 11 -12 -6z"/>
<path d="M8051 3954 c0 -11 3 -14 6 -6 3 7 2 16 -1 19 -3 4 -6 -2 -5 -13z"/>
<path d="M8230 3942 c0 -6 -7 -17 -15 -26 -9 -8 -12 -22 -8 -32 5 -14 9 -9 20
21 7 21 11 41 8 43 -3 3 -5 0 -5 -6z"/>
<path d="M8157 3912 c3 -7 9 -10 12 -5 3 4 10 11 15 15 4 4 -1 6 -12 5 -12 -1
-18 -6 -15 -15z"/>
<path d="M8172 3894 c-7 -8 -8 -14 -3 -14 10 0 25 19 20 25 -2 1 -10 -3 -17
-11z"/>
<path d="M8266 3891 c4 -16 3 -21 -5 -17 -6 4 -11 2 -11 -3 0 -6 4 -11 10 -11
5 0 7 -8 4 -17 -5 -17 -5 -17 6 -1 6 10 18 22 28 28 12 8 12 10 2 7 -8 -2 -21
5 -28 17 -13 20 -13 20 -6 -3z"/>
<path d="M8231 3893 c3 -21 -2 -33 -16 -33 -8 0 -15 6 -16 13 0 6 -5 1 -10
-12 -5 -13 -7 -26 -4 -29 3 -3 5 0 5 6 0 7 9 12 20 12 10 0 24 9 30 19 13 25
13 31 0 31 -5 0 -9 -3 -9 -7z"/>
<path d="M7940 3880 c0 -5 5 -10 11 -10 5 0 7 5 4 10 -3 6 -8 10 -11 10 -2 0
-4 -4 -4 -10z"/>
<path d="M7973 3871 c0 -11 5 -18 9 -15 4 3 5 11 1 19 -7 21 -12 19 -10 -4z"/>
<path d="M8018 3872 c4 -11 1 -13 -8 -7 -8 5 -11 4 -7 -2 4 -6 19 -8 34 -5 20
4 23 7 10 10 -9 2 -15 7 -13 11 3 4 -1 8 -8 8 -8 0 -12 -7 -8 -15z"/>
<path d="M7943 3845 c-10 -11 -9 -13 6 -12 11 1 17 7 14 14 -6 16 -5 16 -20
-2z"/>
<path d="M7906 3837 c3 -10 9 -15 12 -12 3 3 0 11 -7 18 -10 9 -11 8 -5 -6z"/>
<path d="M7986 3842 c-3 -6 0 -12 6 -15 10 -4 11 -7 1 -18 -10 -10 -13 -10
-13 0 0 9 -5 8 -16 -4 -12 -12 -19 -13 -30 -4 -16 13 -30 6 -37 -21 -3 -11 -1
-18 3 -15 5 3 11 -1 14 -7 3 -7 3 -1 0 15 -4 17 -2 27 6 27 6 0 9 -4 6 -9 -3
-5 1 -11 9 -15 8 -3 15 0 15 7 0 8 4 6 10 -3 5 -8 10 -10 10 -5 0 6 5 3 10 -5
9 -13 10 -13 11 0 1 8 1 18 0 23 0 4 3 7 8 7 5 0 12 8 15 18 3 9 4 5 2 -10 -2
-15 1 -25 5 -22 5 3 9 14 9 25 0 13 4 18 12 13 6 -4 8 -3 5 4 -4 5 -15 9 -25
8 -9 -2 -20 1 -23 6 -4 7 -9 6 -13 0z"/>
<path d="M7870 3806 c0 -8 4 -17 9 -20 5 -4 7 3 4 14 -6 23 -13 26 -13 6z"/>
<path d="M7821 3746 c13 -18 12 -19 -8 -14 -16 4 -20 2 -16 -8 3 -8 10 -11 16
-7 6 4 8 0 4 -10 -3 -10 -3 -17 2 -17 18 0 20 45 4 60 -16 14 -16 13 -2 -4z"/>
<path d="M7742 3731 c-11 -7 -10 -9 3 -14 9 -4 13 -3 10 3 -11 17 7 11 21 -7
12 -16 12 -16 7 5 -6 23 -19 27 -41 13z"/>
<path d="M7848 3722 c-4 -15 -1 -18 14 -14 11 2 16 8 11 11 -4 3 -11 10 -14
14 -4 4 -9 -1 -11 -11z"/>
<path d="M7710 3711 c0 -5 7 -11 15 -15 8 -3 15 -1 15 3 0 5 -7 11 -15 15 -8
3 -15 1 -15 -3z"/>
<path d="M7868 3693 c7 -3 16 -2 19 1 4 3 -2 6 -13 5 -11 0 -14 -3 -6 -6z"/>
<path d="M7789 3678 c7 -10 17 -15 22 -12 5 3 9 0 9 -5 0 -10 -14 -15 -32 -12
-4 0 -4 -7 -1 -16 4 -11 8 -13 11 -5 2 7 8 10 13 6 5 -3 9 -1 9 5 0 6 7 8 15
5 8 -4 17 1 21 9 3 9 12 13 21 10 10 -4 14 -2 10 4 -4 6 -24 10 -45 9 -20 -2
-44 2 -52 8 -13 10 -13 9 -1 -6z m56 -18 c3 -5 1 -10 -4 -10 -6 0 -11 5 -11
10 0 6 2 10 4 10 3 0 8 -4 11 -10z"/>
<path d="M7665 3660 c10 -11 20 -20 23 -20 3 0 -3 9 -13 20 -10 11 -20 20 -23
20 -3 0 3 -9 13 -20z"/>
<path d="M7727 3653 c10 -18 20 -28 22 -22 1 5 9 2 17 -8 13 -16 13 -15 2 11
-7 15 -14 23 -16 17 -2 -6 -12 -1 -23 11 -19 23 -19 23 -2 -9z"/>
<path d="M7601 3641 c-8 -5 -9 -11 -3 -15 5 -3 12 1 16 9 6 17 6 18 -13 6z"/>
<path d="M7656 3637 c3 -10 9 -15 12 -12 3 3 0 11 -7 18 -10 9 -11 8 -5 -6z"/>
<path d="M7390 3530 c-9 -6 -10 -10 -3 -10 6 0 15 5 18 10 8 12 4 12 -15 0z"/>
<path d="M7420 3536 c0 -2 7 -9 15 -16 13 -11 14 -10 9 4 -5 14 -24 23 -24 12z"/>
<path d="M7739 3529 c-11 -6 -11 -11 -1 -21 9 -9 12 -8 12 6 0 15 3 16 15 6 9
-7 15 -8 15 -2 0 14 -25 22 -41 11z"/>
<path d="M7165 4316 c-60 -24 -204 -80 -320 -125 -115 -45 -273 -107 -350
-138 -197 -79 -279 -109 -364 -134 -50 -14 -70 -24 -61 -29 8 -5 21 -5 29 0 9
4 36 11 61 15 47 7 246 76 365 125 89 37 473 186 502 195 48 14 287 134 268
134 -11 0 -69 -19 -130 -43z"/>
<path d="M8580 4240 c-13 -8 -12 -10 3 -10 9 0 17 5 17 10 0 12 -1 12 -20 0z"/>
<path d="M8506 4207 c3 -10 9 -15 12 -12 3 3 0 11 -7 18 -10 9 -11 8 -5 -6z"/>
<path d="M8414 3863 c2 -10 6 -17 10 -16 15 3 16 11 2 22 -12 10 -14 9 -12 -6z"/>
<path d="M8470 3921 c0 -6 5 -13 10 -16 6 -3 10 1 10 9 0 9 -4 16 -10 16 -5 0
-10 -4 -10 -9z"/>
<path d="M8126 3852 c-3 -5 1 -9 9 -9 8 0 12 4 9 9 -3 4 -7 8 -9 8 -2 0 -6 -4
-9 -8z"/>
<path d="M8280 3760 c-13 -8 -12 -10 3 -10 9 0 17 5 17 10 0 12 -1 12 -20 0z"/>
<path d="M8318 3733 c-22 -5 -24 -20 -3 -20 8 0 16 6 19 14 3 7 4 12 3 12 -1
-1 -10 -3 -19 -6z"/>
<path d="M7987 3679 c3 -11 12 -23 19 -26 8 -3 14 -9 14 -15 0 -5 -4 -6 -10
-3 -5 3 -7 0 -4 -9 3 -8 12 -12 21 -9 8 3 19 0 24 -8 7 -11 9 -11 9 -1 0 7 4
10 10 7 6 -3 7 1 4 10 -4 8 0 22 7 31 10 13 10 17 -1 24 -9 5 -20 5 -27 -2 -9
-7 -13 -7 -13 0 0 6 -7 9 -15 6 -8 -4 -12 -10 -9 -15 3 -5 0 -9 -5 -9 -6 0
-11 6 -11 14 0 8 -4 17 -9 20 -5 4 -7 -3 -4 -15z m77 -22 c-11 -6 -22 -15 -26
-21 -5 -8 -8 -7 -8 2 0 21 4 27 17 24 7 -2 13 2 13 8 0 6 5 8 11 4 8 -4 5 -10
-7 -17z"/>
<path d="M5111 2934 c-12 -15 -21 -37 -21 -49 0 -35 37 -75 70 -75 42 0 59 9
76 42 28 53 -6 108 -67 108 -29 0 -42 -6 -58 -26z"/>
<path d="M7460 2931 c-37 -36 -37 -51 -4 -90 37 -45 83 -41 109 10 23 43 1 87
-53 103 -17 6 -29 0 -52 -23z"/>
<path d="M6522 2934 c-26 -18 -28 -50 -6 -82 15 -21 21 -22 179 -22 158 0 164
1 179 22 20 29 20 62 0 82 -23 23 -319 23 -352 0z"/>
<path d="M1870 2920 c-16 -29 -5 -66 24 -85 29 -19 52 -11 71 24 21 41 1 75
-47 79 -29 2 -39 -1 -48 -18z"/>
<path d="M8277 2922 c-22 -25 -21 -44 4 -76 26 -33 55 -31 83 7 19 26 19 29 4
55 -21 34 -67 41 -91 14z"/>
</g>
</svg>
